<svg class="text-gray-700 size-20" xmlns="http://www.w3.org/2000/svg" viewBox="0 0 1600 559"><path fill="currentColor" fill-rule="evenodd" d="M293 53c-36 2-83 8-101 12-55 14-101 41-128 79-12 15-19 34-17 45 2 16 14 21 38 15l93-29c2-1 2-2 2-7 0-11 5-18 19-24 20-11 63-18 123-21 41-2 76 6 93 22l5 5 1 7c0 7 0 9-3 15-7 14-27 26-60 36-24 7-48 11-87 15l-4 1 2-3 26-27 28-31c7-7 11-14 10-16-1-3-9-4-17-4-15 1-36 10-59 26-26 18-31 22-40 31-36 37-37 37-73 39-31 1-40 3-52 8-14 7-24 22-18 31 2 4 11 9 26 15 12 6 13 6 12 8l-13 20c-38 52-50 77-52 105-1 17 3 29 14 41 13 13 32 23 61 29 28 7 72 11 97 8 58-6 117-33 152-68 28-30 34-57 19-80-12-18-41-37-80-52a1401 1401 0 0 0-72-25c0-1 9-3 39-8 66-13 108-25 141-42 37-18 55-37 64-66 15-47 1-78-44-96-31-12-84-17-145-14m1037 46c-11 6-22 14-33 26-17 17-26 35-26 50 0 10 1 11 11 22l11 13c1 3-1 6-6 12-9 10-10 15-5 17l7 1c30-4 78-81 78-126 0-9 0-9-3-12-5-5-10-7-18-7-6 0-8 1-16 4m124 34c-20 7-37 25-40 44 0 4-1 6-8 15-13 16-31 34-60 62-32 31-58 58-69 71l-8 9v15c1 25 5 41 14 58 15 30 43 50 78 56 11 2 32 2 41 1 15-3 32-10 53-25a692 692 0 0 0 88-67c6-4 9-10 8-17s-6-17-10-17l-19 13c-33 24-51 35-70 41l-29 6 11-12c67-67 91-145 64-213-4-12-11-26-17-36l-5-7h-7l-15 3m-871 26c-12 1-15 2-33 11-81 40-128 92-139 154-4 23-2 54 6 74 5 13 20 32 32 42 14 10 27 14 46 14 30 0 61-16 92-47 22-22 33-37 40-57l7-16c4-7 18-21 29-27a3092 3092 0 0 0 45-26c12-7 17-8 21-9h6l-4 7c-23 42-52 109-54 128 0 6 2 18 6 25 4 9 16 17 24 17 7 0 17-9 41-38a1216 1216 0 0 1 67-75c12-11 26-21 27-20l-4 8c-9 15-34 69-37 80-1 6-1 24 1 33 3 16 12 29 23 35 5 2 6 2 16 2 9 0 12 0 18-2 17-7 37-18 53-31 13-10 21-17 47-42l23-21 3 12c5 26 10 40 19 53 20 26 66 36 107 23 27-9 56-29 86-58 19-19 44-48 47-53 4-9 2-21-4-24-3-1-2-2-29 18-48 36-74 51-98 54-10 1-16 1-23-3-11-6-20-15-25-24-3-7-4-18-2-25l2-4 26-13c57-29 89-50 112-72 21-21 38-54 36-70-2-13-8-21-20-27-13-7-44-9-69-3-27 5-53 19-79 40-24 20-61 62-73 82-8 15-11 23-12 33 0 6-1 10-3 13-3 6-11 14-23 23l-14 12c-19 16-51 24-56 13v-8c5-27 25-58 70-103 12-13 13-14 16-22 10-24 9-43-4-55-9-7-11-9-21-8-7 0-11 0-16 2-17 6-39 19-70 42l-35 25 1-7 1-16c-1-10-3-16-9-20-4-2-6-3-13-3-13 0-25 3-44 11l-33 16a1254 1254 0 0 0-73 36l-1-24c0-13-1-24-2-25-2-4-8-11-14-15s-6-4-1-11c6-9-1-22-16-29-10-4-28-7-43-5m574 50c-26 10-78 55-89 78-4 8-2 12 5 13a133 133 0 0 0 74-38c10-8 15-13 18-17 10-16 12-29 6-36-3-3-6-3-14 0m-590 26c-27 10-60 43-79 77-8 15-14 34-16 50 0 8 0 9 2 14 5 12 15 19 25 19 7 0 18-4 27-9 11-7 26-18 31-25 22-27 39-69 39-95 0-15-4-24-14-29-5-3-10-4-15-2m821 34a1013 1013 0 0 1-63 59c3 0 15 7 21 11 7 6 15 13 23 23l6 8h4c7-2 15-6 22-13 9-9 13-17 18-33 3-10 2-45-1-59l-4-13c-4-5-5-4-26 17M182 317c-7 2-27 20-38 34-13 18-19 35-16 46 2 7 19 18 35 22 29 7 64 4 102-10 30-11 41-17 48-28 4-5 4-7-2-14-15-15-52-32-108-46l-21-4"></path></svg>