<svg class="text-gray-700 size-20" xmlns="http://www.w3.org/2000/svg" viewBox="-0.006 0 1599.952 464.268"><g fill="currentColor"><path d="M61.023.146c-8.556.57-15.814 2.524-23.172 6.246-2.98 1.511-4.778 2.595-7.344 4.435-4.62 3.308-9.212 7.771-12.592 12.235-5.747 7.586-10.424 17.326-13.59 28.32C1.987 59.54.561 68.98.133 79.203c-.186 4.435-.186 28.22 0 32.656.599 14.231 2.98 26.167 7.5 37.518 4.977 12.506 11.523 21.76 20.435 28.89 7.544 6.033 16.656 10.11 26.21 11.722 4.335.728 6.132.856 11.879.87 5.86 0 7.828-.142 12.52-.927 12.862-2.167 24.67-8.456 33.04-17.64 7.6-8.313 12.834-18.723 15.772-31.343.47-2.053 1.412-7.387 1.412-8.057v-.428h-11.765c-6.474 0-11.764.015-11.764.029-.129 1.112-1.027 5.733-1.512 7.672-2.267 9.212-5.69 15.886-10.852 21.247-5.69 5.918-12.335 9.041-21.504 10.14-2.339.284-8.67.242-10.909-.058-8.071-1.126-14.288-4.093-19.807-9.44-3.893-3.779-6.63-7.7-9.07-12.934-3.864-8.313-6.374-18.295-7.4-29.418-.485-5.19-.542-8.2-.47-26.31.056-18.281.07-18.638.684-24.313 1.511-14.246 5.903-27.151 11.95-35.208 3.721-4.934 7.957-8.513 13.062-11.009 4.449-2.167 8.37-3.151 14.06-3.508 7.002-.442 13.86.756 19.308 3.366 4.563 2.196 8.756 5.504 11.822 9.354 2.267 2.852 4.648 6.902 6.16 10.495 1.597 3.822 3.237 9.583 3.979 14.032.213 1.212.399 2.353.442 2.524l.057.328H128.9v-.413c0-.6-.514-4.022-.942-6.289-3.736-19.807-13.147-34.923-27.208-43.664C90.812 2.912 79.32-.083 65.801.003c-1.64.015-3.794.086-4.778.143zM223.16.146c-13.405.941-25.27 6.146-34.596 15.144-8.256 7.971-14.502 18.367-19.08 31.729-3.336 9.768-5.119 19.308-5.96 31.97-.257 3.893-.257 29.176 0 33.084 1.112 16.812 4.649 30.972 10.866 43.564 3.765 7.615 7.9 13.518 13.262 18.909 4.463 4.492 8.984 7.771 14.388 10.48 6.246 3.11 11.522 4.664 18.98 5.576 2.938.357 11.565.357 14.574 0 8.185-.97 14.716-3.08 21.504-6.916 17.483-9.868 29.69-30.33 34.01-56.997.57-3.522 1.112-7.985 1.44-11.978.314-3.694.47-29.333.214-34.438-.898-17.64-4.406-32.328-10.766-45.033-6.959-13.89-15.615-23.173-27.108-29.076C247.886 2.57 241.056.716 232.713.132c-2.367-.157-7.144-.157-9.554.014zm10.623 21.29c10.053 1.54 18.01 6.774 23.985 15.772 1.412 2.124 2.082 3.308 3.337 5.918 4.121 8.57 6.56 17.839 7.672 29.233.642 6.53.656 6.93.656 23.315 0 16.798-.029 17.696-.784 24.912-1.084 10.253-3.608 19.536-7.558 27.807-4.193 8.741-10.196 15.016-17.868 18.652-4.278 2.025-8.285 2.895-13.932 3.023-3.736.086-6.16-.114-9.126-.756-7.786-1.682-14.788-6.374-20.193-13.547-3.237-4.292-5.903-9.725-8.256-16.798-2.952-8.87-4.535-18.281-5.062-30.174-.186-4.178-.186-22.53 0-26.666.713-16.071 3.679-29.305 8.912-39.714 1.512-3.01 2.638-4.835 4.463-7.287 5.733-7.658 14.09-12.663 22.916-13.733.713-.085 1.483-.185 1.712-.214 1.04-.142 7.771.043 9.126.257zM1205.032.146c-8.514.585-16.129 2.695-23.53 6.531-12.72 6.588-22.23 17.198-29.076 32.456-5.162 11.48-7.928 23.33-9.098 38.858-.256 3.522-.27 31.444 0 34.795 1.17 14.901 4.321 27.08 10.14 39.143 3.821 7.915 8.37 14.489 13.917 20.164 6.802 6.945 14.688 12.021 23.729 15.258 5.12 1.84 10.966 3.01 17.197 3.451 3.052.214 10.71.086 13.761-.228 6.203-.627 11.907-1.811 17.155-3.55 12.306-4.08 22.873-11.067 32.014-21.191l1.611-1.783-.085-5.704c-.029-3.137-.1-13.475-.143-22.958-.043-9.497-.114-22.274-.157-28.42l-.1-11.152h-60.277v19.964H1249.922l-.1 20.777-.1 20.791-.527.784c-.913 1.398-4.064 4.393-5.804 5.548-2.11 1.397-6.232 3.393-8.827 4.292-4.963 1.683-9.269 2.467-15.7 2.852-11.537.67-19.608-1.155-27.308-6.189-4.292-2.81-8.742-7.301-11.964-12.064-3.138-4.634-5.818-10.267-7.929-16.613-2.552-7.686-4.05-15.814-4.649-25.311-.1-1.669-.128-7.572-.085-17.825.057-16.071.057-15.886.756-22.032 1.61-14.274 6.83-28.677 13.276-36.648 3.237-4.007 6.545-6.845 10.809-9.283 6.189-3.551 12.92-5.034 20.92-4.62 5.874.299 10.466 1.411 15.015 3.621 10.324 5.006 16.784 13.861 20.335 27.95.356 1.383 1.126 4.948 1.126 5.162 0 .029 5.262.057 11.708.057h11.707l-.085-.684c-.043-.371-.186-1.47-.3-2.453-1.255-10.267-4.563-19.55-9.868-27.707-2.624-4.036-5.818-7.83-9.07-10.767-9.126-8.228-20.99-13.404-34.18-14.93-4.264-.485-9.94-.627-14.046-.342zM337.667 95.46v92.904h23.529V113.955l20.15-.071c20.748-.057 21.318-.072 26.11-.685 17.482-2.21 32.27-10.01 41.282-21.803 5.661-7.401 8.941-15.387 10.139-24.741.727-5.69.642-12.82-.228-18.296-.899-5.633-2.496-10.595-4.948-15.358-2.638-5.105-5.59-9.112-9.612-13.062-8.87-8.713-21.119-14.403-35.607-16.528-5.518-.812-3.58-.77-38.545-.812l-32.27-.057V95.46zm65.44-73.183c7.13 1.027 12.505 2.938 17.482 6.204 8.157 5.333 13.39 14.003 14.859 24.555.3 2.24.342 8.2.071 10.41-.898 7.116-3.422 13.148-7.572 18.125-4.891 5.86-12.406 10.153-20.834 11.878-4.392.898-3.137.856-25.482.898l-20.435.058v-72.47l20.15.057c17.782.043 20.32.072 21.76.285zM499.946 95.46v92.904h114.08V168.4h-90.551v-65.882h77.574V82.412h-77.574l.028-29.846.043-29.832 44.677-.043 44.662-.029V2.556h-112.94V95.46zM658.374 95.46v92.904H682.19v-4.82c.028-21.89.399-133.673.442-133.716.042-.029 16.242 31.115 36.02 69.204l35.978 69.26 12.05.043 12.05.029V2.556h-23.914l-.086 36.89c-.214 83.764-.3 101.432-.413 101.318-.072-.072-16.285-31.187-36.035-69.133L682.388 2.627l-12.007-.043-12.007-.028V95.46zM821.509 95.46v92.904H843.754v-85.846h76.149v85.846h22.388V2.556h-22.388v79.856h-76.149V2.556H821.51V95.46zM1037.163 2.798c-.057.143-13.561 41.939-30.003 92.876l-29.89 92.618 11.765.043c8.071.014 11.808-.014 11.865-.114.057-.085 3.422-10.895 7.5-24.028l7.401-23.886h62.031l6.118 20.079c3.365 11.037 6.674 21.846 7.33 24.013l1.212 3.965h11.75c6.445 0 11.736-.029 11.736-.072 0-.057-57.967-182.799-58.694-185.066l-.229-.67h-9.896c-9.297 0-9.91.014-9.996.242zm22.188 76.72c6.674 21.974 12.136 40.013 12.136 40.098 0 .114-7.06.157-24.613.157h-24.613l.057-.328c.214-1.04 24.713-80.084 24.798-79.999.057.072 5.562 18.096 12.235 40.071zM1317.044 95.46v92.904h114.08V168.4h-90.551v-65.882h77.574V82.412h-77.574l.028-29.846.043-29.832 44.677-.043 44.662-.029V2.556h-112.94V95.46zM1475.472 95.46v92.904H1499.287v-2.182c.07-29.49.427-136.326.456-136.354.028-.029 16.242 31.13 36.035 69.232l35.992 69.304H1595.827V2.556h-23.914l-.114 46.587c-.057 25.64-.157 56.798-.2 69.261l-.085 22.66-36.007-69.219-36.02-69.218-12.008-.043-12.007-.028V95.46zM60.239 273.51c-10.496.884-19.422 3.865-27.636 9.198-9.184 5.989-16.285 14.189-21.79 25.183-6.502 12.977-9.967 27.465-10.68 44.62-.186 4.477-.186 28.077 0 32.64.584 14.26 2.895 25.883 7.5 37.547 2.268 5.733 4.892 10.738 8.214 15.658 4.678 6.93 11.323 13.29 18.253 17.454 9.982 6.003 21.233 8.784 33.982 8.428 11.736-.328 21.39-2.895 30.445-8.086 15.857-9.083 26.338-25.525 29.946-46.986.242-1.37.428-2.696.428-2.924v-.413h-23.529l-.057.313c-.043.186-.143.813-.243 1.398-.513 3.437-1.554 7.686-2.724 11.18-2.281 6.845-5.347 11.992-9.81 16.499-1.868 1.882-3.052 2.852-5.234 4.263-5.946 3.879-12.449 5.604-21.076 5.59-6.702 0-11.665-1.055-16.699-3.522-5.29-2.61-9.91-6.602-13.604-11.765-5.704-7.97-10.067-21.404-11.465-35.293-.57-5.647-.584-6.232-.584-25.882 0-19.664 0-19.878.584-25.597 1.512-15.13 6.275-28.762 12.891-36.933 1.384-1.711 4.35-4.706 5.847-5.904 3.693-2.966 8.214-5.219 12.791-6.374 2.938-.741 5.405-1.055 8.884-1.155 9.754-.257 17.126 1.882 23.957 6.973 2.724 2.025 6.346 6.032 8.442 9.312 1.098 1.725 2.495 4.35 3.323 6.274 1.753 4.007 3.493 10.01 4.278 14.688.2 1.255.399 2.424.442 2.595l.057.328H128.9v-.427c0-.243-.172-1.54-.371-2.895-2.396-16.171-8.742-29.932-18.182-39.458-4.463-4.506-9.768-8.199-15.814-10.994-6.089-2.81-12.435-4.506-19.964-5.347-2.453-.271-11.879-.4-14.331-.186zM223.302 273.439c-8.456.713-14.503 2.324-21.148 5.618-3.764 1.868-6.944 3.893-10.039 6.36-1.868 1.498-5.86 5.419-7.657 7.53-5.148 6.031-9.583 13.532-12.949 21.903-4.634 11.522-6.973 22.488-7.985 37.504-.257 3.722-.257 29.418 0 33.083.955 13.79 3.208 24.598 7.444 35.721 6.003 15.757 15.343 27.793 27.193 35.051 4.892 2.995 11.01 5.476 16.442 6.645 4.677 1.027 8.2 1.37 13.904 1.355 7.386-.014 13.176-.884 18.937-2.852 11.08-3.793 20.306-10.68 27.693-20.634 4.577-6.189 8.898-14.716 11.679-23.059 3.08-9.24 4.72-17.839 5.804-30.516.242-2.78.342-29.318.128-33.582-.998-20.306-5.604-37.005-14.089-51.122-3.208-5.334-6.303-9.284-10.524-13.405-4.12-4.021-7.985-6.83-12.962-9.426-6.075-3.165-12.064-4.976-19.465-5.917-1.697-.214-10.724-.4-12.406-.257zm7.187 21.02c5.305.341 8.813 1.225 12.99 3.279 9.47 4.634 15.844 12.648 20.606 25.882 1.655 4.577 2.81 9.126 3.694 14.474.67 4.021.798 5.176 1.454 12.548.243 2.61.343 29.547.129 33.654-.77 15.344-2.88 25.354-7.558 35.864-3.68 8.27-8.827 14.474-15.258 18.41-4.007 2.438-8.015 3.85-12.906 4.563-2.153.314-7.828.356-10.053.085-6.075-.77-11.151-2.809-16.114-6.488-1.682-1.255-5.604-5.148-6.987-6.945a46.77 46.77 0 0 1-5.462-9.055c-5.12-11.222-7.7-23.172-8.37-38.716-.186-4.292-.186-22.33 0-26.523.599-13.576 2.723-24.713 6.588-34.552 4.05-10.324 9.64-17.44 17.24-21.932 5.19-3.08 9.968-4.378 17.098-4.663.356-.014 1.654.043 2.909.114zM337.667 368.824v92.904h23.814V379.59h77.289v-19.964h-77.289v-63.6h90.266V275.92h-114.08v92.904zM501.087 368.824v92.904H524.9V379.59h77.289v-19.964h-77.289v-63.6h90.266V275.92h-114.08v92.904zM663.365 368.824v92.904h114.08V441.62h-90.551v-65.739H764.47v-20.106H686.894V296.027h89.411V275.92h-112.94v92.904zM826.785 368.824v92.904h114.08V441.62h-90.551v-65.739h77.574v-20.106h-77.574V296.027h89.41V275.92H826.785v92.904zM1155.62 368.824v92.904H1270.129V441.62h-90.836v-165.7h-23.671v92.903zM1334.056 368.795l-29.96 92.862 11.778.042c6.475.015 11.794 0 11.836-.028.029-.043 3.408-10.866 7.515-24.071l7.444-24h61.988l7.344 24.057 7.344 24.07h11.736c6.46 0 11.736-.042 11.736-.099 0-.086-58.68-185.066-58.851-185.494-.057-.185-1.426-.214-10.01-.214h-9.925l-29.975 92.875zm52.135-16.014c6.673 22.004 12.135 40.043 12.135 40.1 0 .07-11.08.114-24.613.114H1349.1l.072-.314c.47-1.768 24.726-80.07 24.783-79.999.043.057 5.548 18.096 12.236 40.1zM1479.18 368.824v92.904h30.56c19.493 0 31.371-.057 32.826-.143 10.253-.67 19.764-3.08 27.964-7.115 2.951-1.44 4.192-2.154 6.901-3.95 6.646-4.393 11.508-9.298 15.387-15.515 3.765-6.018 5.832-11.85 6.802-19.194.314-2.382.442-9.754.2-12.307-.7-7.828-3.138-14.73-7.487-21.276-5.362-8.085-15.3-15.187-24.84-17.753-1.199-.314-1.498-.6-.856-.799.627-.185 5.475-2.581 7.016-3.465.87-.5 2.367-1.426 3.35-2.068 5.605-3.679 10.467-8.927 13.448-14.502 3.493-6.531 4.877-13.176 4.506-21.547-.456-10.424-3.351-18.31-9.526-25.968-1.654-2.053-4.763-5.133-6.816-6.773-8.071-6.388-18.837-10.652-31.6-12.506-6.16-.884-4.007-.841-37.347-.884l-30.488-.057v92.918zm61.46-72.47c4.65.628 8.685 1.526 11.865 2.667 2.267.813 5.561 2.453 7.415 3.694 1.654 1.098 4.193 3.436 5.533 5.076 3.323 4.079 5.148 8.627 5.69 14.246.884 9.04-1.811 16.556-8.128 22.688-4.977 4.834-11.408 8.028-19.209 9.54-4.078.798-4.192.798-23.3.798h-17.654v-59.051l18.01.057c15.8.043 18.21.086 19.779.286zm3.993 78.716c12.079 1.583 20.991 6.545 26.381 14.73 2.51 3.808 4.107 8.015 4.806 12.678.357 2.438.357 8.598 0 10.908-1.084 6.888-4.036 12.706-8.855 17.455-4.949 4.848-12.193 8.513-19.736 9.982-4.121.798-4.036.798-25.012.798h-19.365v-33.34c0-18.338.042-33.397.1-33.454.056-.057 9.026-.07 19.935-.042 17.896.042 20.007.07 21.746.285z"></path></g></svg>