<svg class="text-gray-700 size-24" fill="currentColor" stroke-width="0" xmlns="http://www.w3.org/2000/svg" viewBox="0 0 360 54.8"><path d="M0 27.4c0 14.8 11.2 27.4 29.2 27.4 8.3 0 13.7-2.7 19.1-6.7l-4.9-9c-3.9 3-8.1 5.2-14.1 5.2-10.8 0-17.3-7.4-17.3-16.9 0-9.5 6.5-16.9 17.3-16.9 6 0 10.3 2.2 14.1 5.2l4.9-9C42.9 2.7 37.5 0 29.2 0 11.2 0 0 12.6 0 27.4zM59.4 27.4c0 15.1 12.4 27.4 27.7 27.4 15.2 0 27.6-12.3 27.6-27.4C114.6 12.3 102.2 0 87 0 71.7 0 59.4 12.3 59.4 27.4zm11.6 0c0-9.7 7.2-16.6 16-16.6 8.7 0 16 6.9 16 16.6S95.8 44 87 44s-16-6.9-16-16.6zM141.7 54V32.6h17.6v-9.3h-17.6V10.2h26.4V.8H130V54h11.7zM178.1 27.4c0 15.1 12.4 27.4 27.7 27.4 15.2 0 27.6-12.3 27.6-27.4C233.4 12.3 221 0 205.8 0c-15.3 0-27.7 12.3-27.7 27.4zm11.7 0c0-9.7 7.2-16.6 16-16.6 8.7 0 16 6.9 16 16.6s-7.2 16.6-16 16.6-16-6.9-16-16.6zM245.4 27.4c0 14.8 11.2 27.4 29.2 27.4 8.3 0 13.7-2.7 19.1-6.7l-4.9-9c-3.9 3-8.1 5.2-14.1 5.2-10.8 0-17.3-7.4-17.3-16.9 0-9.5 6.5-16.9 17.3-16.9 6 0 10.3 2.2 14.1 5.2l4.9-9c-5.4-4-10.8-6.7-19.1-6.7-18 0-29.2 12.6-29.2 27.4zM304.7 27.4c0 15.1 12.4 27.4 27.7 27.4 15.2 0 27.6-12.3 27.6-27.4C360 12.3 347.6 0 332.4 0c-15.3 0-27.7 12.3-27.7 27.4zm11.7 0c0-9.7 7.2-16.6 16-16.6 8.7 0 16 6.9 16 16.6s-7.2 16.6-16 16.6-16-6.9-16-16.6z"></path></svg>