<svg class="text-gray-700 size-14" fill="currentColor" stroke-width="0" xmlns="http://www.w3.org/2000/svg" xml:space="preserve" id="Layer_1" x="0" y="0" style="enable-background:new 0 0 7599.1 6138.8" version="1.1" viewBox="0 0 7599.1 6138.8"><path d="M2339.9 2660c7.1-3.1 14.9-5.2 21.2-9.5 65.2-44.9 131.7-88 194.8-135.6C2671 2428 2800.5 2370.8 2935 2323c261-92.8 531.5-125.3 807-124 295.4 1.4 584 43.7 861.1 149.3 460.1 175.2 806.2 479.2 1030.6 919 5.7 11.2 10.9 22.6 18.6 38.5-49.8 0-96.4.9-142.9-1-6.5-.3-13.9-13-18.5-21.3-164.1-298.8-396.1-529.6-694.5-693.6-231-127-479.3-199.5-740-231.7-262.5-32.4-524.4-27.9-784.8 19.9-439.1 80.5-816 273.8-1108.7 617.5-76.1 89.4-141.7 186.2-197.3 289.6-8.1 15-16.7 22.1-34.8 21.4-41.9-1.5-83.9-.5-129.1-.5 3.7-9.3 5.5-16.4 9.1-22.4 51.9-88.5 98-181.1 157-264.5 705.9-999.1 1413.7-1996.7 2120.6-2995.1 12-17 24-24.6 45.1-23.8 43.5 1.6 87.2.5 135.6.5-6.5 10.5-10.2 17.4-14.7 23.7C3731.1 762.9 3208.8 1502 2683.3 2238.9c-72.6 101.8-160.5 192.7-241.4 288.5-30.4 36-61 71.9-91.4 107.9-5.1 6.1-9.6 12.6-14.4 19 1.3 1.8 2.6 3.7 3.8 5.7zM5817.1 4525.7c-21.6 83.7-37.8 164.8-63.3 242.8-222.8 682.2-689.4 1106.6-1377.7 1291.4-290.7 78.1-587.8 92.4-887.1 68.3-269.1-21.7-529.4-80.7-774-196.5-571-270.2-919.5-719.2-1060.4-1332.5-5.4-23.5-9.3-47.4-14.3-73.5 42.9 0 83.2-.8 123.5.8 6 .2 15.2 11 16.8 18.2 26.3 123 62 243 112.7 358.2 212.1 481.9 572 803.2 1066.7 975.6 270.3 94.2 550.3 126.1 835.4 119.6 228.6-5.2 453.4-36.1 670.4-109.1 593.8-199.7 988.7-596 1173.7-1197 14.6-47.4 25.5-96 35.4-144.6 3.8-18.5 10.9-22.7 28.2-22.1 35.8 1.2 71.8.4 114 .4zM7158.4 4075c-31.5 46.5-60.7 89.6-89.8 132.6-27.8 41.1-55.4 82.4-83.8 123.2-4.4 6.3-12 14.5-18.3 14.6-78.9 1-157.8.6-241.8.6 8.1-12 13.4-20 18.9-27.9 90.1-129.1 180-258.3 270.6-386.9 10.2-14.5 11-24.3.5-39.4-84.8-122.5-168.6-245.7-252.7-368.6-5.1-7.5-9.9-15.1-16.7-25.5 10.3-.8 17.4-1.7 24.5-1.7 67.3-.1 134.7.5 202-.5 16.3-.2 25.7 4.9 34.6 18.6 44.8 69.3 90.7 137.8 136.2 206.5 4.6 6.9 9.6 13.5 16.2 22.7 19.4-29.2 37.3-56.4 55.3-83.5 32.5-49.1 64.6-98.5 98-147.1 5.3-7.7 16.3-16 24.8-16.1 77.4-1.2 154.8-.7 237.3-.7-6.4 10.1-10.6 17.5-15.5 24.5-82.3 119.1-164.2 238.5-247.4 356.9-12.6 17.9-13.6 29.6-.7 48.1 90.9 130.6 180.4 262.1 270.3 393.3 5.2 7.5 10.1 15.3 18.1 27.5h-35.6c-66.5 0-133-.6-199.5.4-16.4.2-25.9-5.1-34.8-18.6-55.4-83.3-111.8-166-170.7-253zM5424 4217.8c28.4-56.1 55.3-109.2 83.2-164.4 8 5.9 14.6 10.7 21.1 15.6 70.5 52.8 148.2 90.8 235.3 104.3 34.9 5.4 72.1 2.3 107.3-2.9 27.9-4.1 48.5-23.5 53.2-53.9 5-32.2-8.5-57.7-36.3-71.4-33-16.2-68.1-28.3-102.9-40.5-61-21.4-124.9-36.4-183.1-63.5-106.2-49.4-148.2-150.8-116.3-263.4 18.8-66.4 62.5-112.2 122.4-143.9 50.7-26.8 105.5-39.5 162.3-43.2 119.4-7.8 232.8 15.2 339.5 69.8 12.6 6.4 24.6 14.1 39.6 22.7-27.1 56.3-53.6 111.2-78.9 163.7-55.1-21.9-106.9-47.4-161.5-62.5-45.4-12.6-94-16.8-141.3-17.6-36.2-.6-57.7 20.8-63.5 47.6-5.9 27.4 7.7 53.8 39.4 72.3 15.2 8.9 31.5 16.1 48.1 21.9 27.8 9.7 56.5 16.6 84.3 26.3 49.2 17.2 99.5 32.1 146.4 54.2 80.1 37.7 125.8 101.6 129.1 192.5 3.4 95.1-35 168-116.4 217.4-62.1 37.8-131.1 52.1-202.7 53.9-133.5 3.5-256.1-32.7-367.8-105.7-13.4-8.6-25.9-18.6-40.5-29.3zM3922.9 3496.8h94V4346c-29.3 0-59.4 1.5-89.1-1-8.3-.7-17.2-11.9-23.4-20.2-156.9-209.5-313.5-419.2-470.2-628.9-6.5-8.6-12.9-17.2-24-31.9v680.1h-94.8v-848.2c30 0 60.8-1.3 91.4.9 7.5.5 15.3 11.7 21.1 19.4 158.2 211.7 316.2 423.5 474.3 635.3 5.4 7.2 11 14.1 20.8 26.5-.1-230.4-.1-454.4-.1-681.2zM1653.9 3495.8c30.8 0 59.4-1.7 87.6 1 9.2.9 19.3 11.6 25.8 20.2 158.4 211.6 316.3 423.5 474.4 635.3 5.3 7.1 11 14 20.5 26.2v-680.7h93.5v848.1c-29.9 0-60 1.5-89.8-1-8.3-.7-16.8-12.5-23-20.8-155.9-208.2-311.5-416.6-467.2-624.9-7-9.4-14.2-18.8-25.4-33.6v678.6h-96.4v-848.4zM0 4346.2v-847.1c3.6-1.2 5.9-2.7 8.2-2.7 127.1.9 254.5-4 381.2 4.1 215.8 13.8 377.9 185.9 387.2 401 9.4 217.2-137.3 399.9-351.5 436-36.3 6.1-73.7 7.8-110.6 8.3-95.1 1.1-190.3.4-285.4.4H0zm95.9-92.7c91.5 0 181.6 3.7 271.2-.8 207.7-10.4 350.1-201.7 304.5-404.7-32.5-144.6-156.4-251.1-305.1-257.4-85.7-3.7-171.6-1.3-257.4-1.6-4 0-8 1.2-13.2 2.1v662.4zM5127.9 3608.4c-19.3 25.3-36.6 47.9-52.9 69.3-34.2-20.3-65.8-42.8-100.4-59-144.3-67.7-314.4-36.9-419.2 73.9-172.4 182.3-88.6 479.4 155.4 550.4 111.1 32.3 215 12.6 312.3-46.6 8.5-5.2 16.1-19.4 16.3-29.6 1.3-77.4.7-154.9.7-234.6h84.9v111c0 58.9.4 117.9-.5 176.8-.1 8.8-3.9 20.9-10.2 25.7-195.8 146.2-471.9 143.3-639.6-43.5-217.2-241.9-91.2-624.9 229.2-696.5 156.2-35 296.6.2 424 102.7zM6343.9 3497.1H6555v847.5h-211.1v-847.5zM1128.4 4344.2v-846.9h92.8v846.9h-92.8zM2789.6 3497.1h92.1v847.3h-92.1v-847.3z" class="st0"></path></svg>