 <svg class="text-gray-700 size-16 -mt-2" fill="currentColor" viewBox="0 0 97.28 51.69" xmlns="http://www.w3.org/2000/svg"><g id="Fårup_Logo_2022"><path class="cls-1" d="M27.28 14.98c-1.83 0-3.31 1.35-3.31 3.02s1.49 3.02 3.31 3.02 3.31-1.35 3.31-3.02-1.49-3.02-3.31-3.02ZM50.47 22.05c-.16-.02-.33-.05-.49-.06l-5.27-.52a3.72 3.72 0 0 0-4.08 3.34l-1.88 18.83a3.739 3.739 0 0 0 3.12 4.05l.22.03c2.04.21 3.88-1.3 4.08-3.34l.48-4.83 1.78 6.44c.34 1.22 1.22 2.26 2.42 2.66.73.24 1.48.26 2.2.06 1.98-.55 3.15-2.6 2.6-4.59l-1.92-5.84-.3-.85a8.397 8.397 0 0 0 4.01-6.32 8.317 8.317 0 0 0-6.97-9.04v-.02Zm1.02 8.32c.09 1.02-.42 1.94-1.33 2.4-.43.22-.92.27-1.4.23l-2.28-.22h-.06c-.19-.03-.33-.11-.42-.24-.15-.21-.1-.48-.1-.49l.34-3.47c.06-.65.7-.62.74-.62l2.35.24c.14.01.28.04.42.08.94.27 1.66 1.12 1.75 2.09h-.01ZM75.68 24.81c-.03-.34-.11-.66-.22-.97-.07-.21-.17-.4-.28-.59a3.728 3.728 0 0 0-2.62-1.77c-.2-.03-.41-.05-.62-.04a3.73 3.73 0 0 0-3.71 3.75l.09 13.92s0 .04-.02.09c-.05.22-.24.74-.94.75-.07 0-.15 0-.22-.02-.71-.11-.74-.78-.75-.81L66.3 25.2c0-.45-.09-.9-.24-1.3-.07-.21-.17-.4-.28-.59a3.708 3.708 0 0 0-2.62-1.77c-.2-.03-.41-.05-.62-.04a3.73 3.73 0 0 0-3.71 3.75l.09 13.95.02.38a8.349 8.349 0 0 0 7.75 8.31c.23.02.46.02.7.02.14 0 .28 0 .42-.01.14 0 .27-.02.42-.03.14-.01.27-.03.41-.05.27-.04.54-.1.8-.16a8.339 8.339 0 0 0 3.87-2.23 8.38 8.38 0 0 0 2.45-5.96v-1.29l-.07-13.03c0-.11 0-.23-.02-.34h.01ZM87.39 21.55c-.21-.03-.43-.06-.65-.07-.22-.02-.44-.02-.65-.02h-5.3a2.41 2.41 0 0 0-.75.06c-.24.05-.47.12-.7.22-.22.09-.44.21-.64.34-.4.27-.74.61-1.01 1-.14.2-.25.41-.34.64-.19.44-.29.93-.3 1.45l-.04 18.91c0 1.84 1.31 3.4 3.13 3.69.19.03.39.04.59.05 1.23 0 2.37-.59 3.09-1.63.44-.64.64-1.43.64-2.21v-5.23c.01-.08.02-.15.04-.21.03-.12.08-.21.14-.27.16-.16.36-.17.37-.17h1.03c2.23-.02 4.32-.89 5.89-2.44.2-.19.38-.4.55-.61s.34-.43.49-.65c.07-.11.15-.22.22-.34.21-.35.39-.71.55-1.08.11-.25.19-.5.27-.76.08-.26.14-.52.2-.78.11-.53.16-1.08.16-1.63 0-4.12-2.93-7.59-7-8.24Zm-1.41 10.98h-2.3c-.06 0-.11 0-.15-.02a.815.815 0 0 1-.25-.09.536.536 0 0 1-.15-.15c-.05-.07-.07-.15-.09-.22-.01-.07-.02-.13-.02-.16v-3.52c0-.66.65-.69.68-.69h2.37c.12 0 .26.01.38.04a2.42 2.42 0 0 1 1.97 2.98c-.26 1.1-1.31 1.83-2.44 1.83ZM16.94 43.5c-.47 1.83.62 3.69 2.44 4.17.11.03.22.05.32.07 1.74.28 3.4-.8 3.84-2.51l.26-.81h6.56l.22.82a3.434 3.434 0 0 0 2.77 2.53c.46.07.93.05 1.38-.06a3.35 3.35 0 0 0 2.09-1.57c.47-.78.6-1.7.37-2.59l-4.72-17.79c-.09-.36-.32-.92-.52-1.25-.87-1.38-2.14-1.71-2.47-1.78-1.15-.19-3.51-.24-4.76-.01-.44.06-2.3.44-2.87 2.55l-2.71 10.06c-.61 2.27.06-.2-.36 1.32l-1.85 6.86Zm8.16-6.21 1.14-4.22c.1-.36.4-.61.76-.64h.18c.36.04.66.29.75.65L29 37.22c.19.55.04.89-.11 1.08-.24.3-.59.35-.79.35h-1.99c-.07 0-.17 0-.29-.01a.93.93 0 0 1-.64-.4c-.16-.25-.19-.57-.09-.95ZM17.92 34.3a3.726 3.726 0 0 0-4.11-3.3l-2.42.26s-.07 0-.15-.01c-.16-.03-.34-.12-.37-.41l-.11-.93c-.06-.56.42-.64.44-.64l5.45-.59c1.56-.17 2.94-1.24 3.35-2.76.58-2.18-.88-4.24-2.91-4.63-.36-.07-.72-.08-1.09-.04L6.27 22.3c-.06 0-.11.01-.16.02-2.11.52-3.43 2.19-3.22 4.09l2.02 18.67c.11 1 .55 1.97 1.34 2.61.9.74 2.04 1 3.13.78 1.92-.39 3.15-2.28 2.94-4.22l-.59-5.49.03-.04 2.86-.31a3.733 3.733 0 0 0 3-2.19s.12-.27.2-.58.1-.54.1-.54c.02-.26.03-.52 0-.79Z"></path><path class="cls-1" d="M94.56 22.49a11.167 11.167 0 0 0-8.47-3.9h-5.3l-.01-.01c-1.66 0-3.21.62-4.4 1.69-.93-.83-2.1-1.4-3.36-1.6a7.85 7.85 0 0 0-1.08-.08c-1.79.01-3.46.75-4.67 1.99a6.528 6.528 0 0 0-3.62-1.84c-.36-.06-.72-.08-1.08-.08-2.49.01-4.65 1.42-5.76 3.47-1.59-1.49-3.61-2.5-5.79-2.87h-.07c-.22-.05-.44-.07-.66-.1l-5.27-.52a6.596 6.596 0 0 0-7.21 5.91l-.72 7.27-1.79-6.77c-.15-.57-.48-1.43-.87-2.04a6.751 6.751 0 0 0-1.76-1.89c.58-.91.9-1.97.9-3.08 0-3.28-2.8-5.94-6.24-5.94s-6.24 2.67-6.24 5.94c0 1 .26 1.96.74 2.81-.06.03-.11.07-.16.11a6.504 6.504 0 0 0-4.01-2.44c-.64-.12-1.28-.14-1.93-.07-9.76 1.05-9.82 1.06-9.87 1.07l-.21.04h-.06c-1.6.38-3.03 1.23-4.03 2.41-1.19 1.29-1.71 3-1.52 4.75l2.04 18.81c.21 1.97 1.23 3.67 2.87 4.77 1.3.87 2.85 1.25 4.39 1.08 1.95-.21 3.7-1.28 4.8-2.92.23-.35.42-.72.59-1.11a6.29 6.29 0 0 0 3.94 3.1 6.293 6.293 0 0 0 7.14-3.16h2.51a6.32 6.32 0 0 0 4.59 3.31c.85.14 1.71.09 2.55-.12 1.03-.26 1.96-.77 2.72-1.48.04.03.4.32.4.32.83.61 1.8 1.02 2.85 1.18.13.02.26.04.39.05 1.76.17 3.47-.34 4.83-1.46.04-.03.07-.06.11-.09a6.64 6.64 0 0 0 4.27 2.61c.35.06.69.08 1.04.08a6.609 6.609 0 0 0 6.45-5.22c.11.14.23.28.35.42 1.73 2 4.12 3.33 6.73 3.75.61.1 1.24.14 1.86.14 2.92-.02 5.66-1.13 7.75-3.16.06.1.13.19.19.29.11.16.24.32.36.46a6.768 6.768 0 0 0 2.29 1.72c.21.09.44.18.7.26.23.07.47.14.74.19h.03c.06.02.12.03.19.04.17.02.34.05.51.06.17.01.36.02.53.02 2.17 0 4.19-1.05 5.48-2.91.77-1.12 1.12-2.47 1.12-3.83v-3.05c2.51-.3 4.82-1.41 6.63-3.2 2.12-2.1 3.3-4.9 3.3-7.89 0-2.69-.95-5.28-2.7-7.31Zm-1.74 14.06a9.664 9.664 0 0 1-6.75 2.8h-.34v4.75c-.01 2.74-2.25 4.97-4.99 4.96-.13 0-.26 0-.39-.02-.13-.01-.26-.02-.39-.04-.06 0-.11-.02-.16-.03-.19-.04-.37-.09-.56-.14-.18-.06-.36-.12-.53-.2a4.901 4.901 0 0 1-1.73-1.3c-.1-.11-.19-.23-.27-.35-.26-.36-.47-.75-.62-1.17s-.25-.85-.29-1.29c0-.1-.01-.2-.02-.3-.42.75-.94 1.45-1.56 2.07a9.595 9.595 0 0 1-6.79 2.87c-.53 0-1.07-.04-1.59-.12a9.732 9.732 0 0 1-5.76-3.21 9.63 9.63 0 0 1-2.35-6.22v-.36l-.01-.02v-.02l-.03-4.62a9.4 9.4 0 0 1-2.77 3.31l1.91 5.82v.03l.01.03c.61 2.16-.27 4.51-2.23 5.61-1.27.71-2.64.87-3.98.48-1.68-.5-2.93-1.91-3.4-3.6l-.13-.47c-.31.79-.81 1.49-1.48 2.04a4.95 4.95 0 0 1-3.64 1.1c-.1-.01-.2-.02-.29-.04a4.966 4.966 0 0 1-3.57-2.52c-.06.13-.13.26-.21.39a4.635 4.635 0 0 1-2.85 2.14c-.62.16-1.26.19-1.89.09a4.684 4.684 0 0 1-3.75-3.33h-4.69a4.636 4.636 0 0 1-5.2 3.3c-.15-.02-.3-.06-.44-.09a4.658 4.658 0 0 1-3.33-5.68s1.16-4.31 1.16-4.31c-.68.43-1.46.68-2.26.77l-1.53.17v.02l.45 4.33c.1.95-.01 1.93-.44 2.78-.78 1.6-2.26 2.62-3.96 2.81a5.02 5.02 0 0 1-3.73-1.13c-1.02-.83-1.62-2.08-1.76-3.39L1.66 26.54a4.75 4.75 0 0 1 1.1-3.59c.77-.92 1.89-1.58 3.15-1.86l.15-.02c.07-.01 9.8-1.06 9.8-1.06.49-.05.98-.03 1.45.06 1.91.36 3.4 1.76 3.88 3.6.38-.64.9-1.16 1.55-1.55.4-.22 1.12-.41 1.96-.54-1.23-.78-2.04-2.09-2.04-3.58 0-2.38 2.07-4.32 4.62-4.32S31.9 15.62 31.9 18c0 1.53-.85 2.87-2.13 3.63.67.13 1.25.33 1.66.6.54.35 1.1.87 1.57 1.61.29.45.55 1.14.67 1.59l4.09 15.43 1.61-16.19c.27-2.73 2.7-4.72 5.44-4.45l5.27.52c.19.02.38.04.57.07 3.08.49 5.61 2.43 6.96 5.02v-.59a4.968 4.968 0 0 1 5.75-4.94 4.93 4.93 0 0 1 3.89 3.23 4.979 4.979 0 0 1 5.49-3.29c1.6.26 2.91 1.25 3.62 2.6.83-1.58 2.5-2.67 4.41-2.66h5.3c.5.01 1 .06 1.5.13 2.22.36 4.27 1.5 5.74 3.21a9.563 9.563 0 0 1 2.31 6.25c0 2.55-1.01 4.94-2.82 6.74ZM30.2 1.65C29.75.12 27.82-.49 26.53.45c-.91.66-.92 1.86-.9 2.72.02 1.69.06 1.99.19 4.06.04.72.04 1.61.4 2.39.62 1.36 2.42 1.71 3.27-.11.14-.31.22-.64.26-.97.11-.87.35-2.85.47-3.93.11-.98.11-.84.13-1.36.02-.6 0-1.12-.14-1.58ZM23.84 9.2c-.57-1.21-1.45-2.81-1.93-4.09-.77-2.07-1.73-2.38-3.06-2.32-.8.04-1.46.45-1.81 1.15-.74 1.51.17 2.94.46 3.29 1.38 1.68 2.64 3.76 3.88 4.59.64.43 1.32.36 2.11-.11.68-.53.87-1.62.34-2.51Z"></path><path class="cls-1" d="m18.55 12.36-2.12-1.15c-.54-.24-1.22-.53-1.99-.52-2.52-.02-3.26 3.56-1.02 4.43 1.25.49 2.22.7 3.25.83 1 .11 2.32.63 3.12-.07 1.02-.88 1.07-2.42-1.24-3.51ZM31.79 9.73c.7-1.15 1.75-2.63 2.37-3.85 1-1.97 1.99-2.17 3.3-1.96.8.13 1.4.62 1.66 1.35.57 1.58-.5 2.9-.83 3.22-1.56 1.51-3.05 3.44-4.37 4.12-.68.36-1.35.2-2.09-.35-.62-.6-.68-1.71-.05-2.53ZM36.56 13.5l2.19-1c.56-.2 1.26-.44 2.02-.39 2.51.16 3 3.77.71 4.49-1.28.4-2.27.54-3.3.61-1.01.04-2.35.47-3.1-.29-.95-.95-.9-2.49 1.48-3.42Z"></path></g></svg>