<svg class="text-gray-700 size-30" viewBox="0 0 173.452 16.948" xmlns="http://www.w3.org/2000/svg">
  <path fill="currentColor" d="M 90.751 16.444 L 85.631 16.444 L 82.508 5.79 L 82.508 16.427 L 79.038 16.427 L 79.038 0.523 L 84.158 0.523 L 87.103 10.889 L 87.103 0.519 L 90.749 0.519 L 90.751 16.444 Z M 142.553 16.432 L 137.753 16.432 L 134.623 10.732 L 134.153 10.732 L 134.153 16.437 L 129.805 16.437 L 129.805 0.537 L 130.128 0.515 L 136.498 0.519 C 137.998 0.536 139.358 0.933 140.432 2.033 C 142.402 4.056 142.159 8.05 139.072 9.499 C 138.925 9.569 138.767 9.621 138.574 9.699 L 142.574 16.455 Z M 134.165 3.826 L 134.165 7.264 C 134.878 7.282 135.569 7.321 136.218 7.027 C 136.921 6.709 137.195 6.115 137.188 5.375 C 137.182 4.74 136.811 4.242 136.188 4.002 C 135.544 3.759 134.874 3.798 134.188 3.826 L 134.188 3.826 Z M 55.799 8.439 L 55.797 11.501 C 55.774 13.753 54.675 15.336 52.677 16.261 C 50.655 17.197 48.581 17.181 46.579 16.181 C 44.679 15.237 43.691 13.669 43.666 11.541 L 43.662 5.587 C 43.663 3.227 44.876 1.392 47.082 0.55 C 49.365 -0.322 51.582 -0.163 53.632 1.23 C 55.012 2.167 55.734 3.53 55.787 5.19 L 55.794 8.444 L 55.798 8.444 L 55.799 8.442 Z M 51.299 5.744 C 51.298 5.448 51.307 5.144 51.262 4.864 C 51.116 3.937 50.142 3.364 49.248 3.641 C 48.543 3.868 48.148 4.441 48.148 5.273 L 48.148 11.667 C 48.148 11.768 48.154 11.868 48.166 11.968 C 48.263 12.825 48.996 13.438 49.846 13.372 C 50.676 13.306 51.289 12.632 51.298 11.752 L 51.299 5.744 Z M 126.556 6.222 L 122.092 6.222 L 122.062 5.929 L 122.058 5.129 C 122.025 4.229 121.31 3.559 120.395 3.567 C 119.529 3.577 118.833 4.267 118.83 5.165 L 118.832 11.782 C 118.836 12.655 119.562 13.344 120.482 13.377 C 121.318 13.407 122.104 12.737 122.168 11.911 C 122.198 11.531 122.174 11.145 122.174 10.711 L 120.354 10.711 L 120.354 7.631 L 126.557 7.631 L 126.558 11.386 C 126.568 13.613 125.53 15.218 123.558 16.166 C 121.224 17.293 118.88 17.203 116.658 15.818 C 115.096 14.838 114.328 13.358 114.315 11.518 L 114.312 5.618 C 114.298 3.238 115.437 1.601 117.558 0.631 C 120.076 -0.519 123.216 -0.009 125.078 1.831 C 126.025 2.765 126.496 3.914 126.535 5.231 L 126.538 6.211 Z M 12.226 6.242 L 7.733 6.242 L 7.733 5.219 C 7.723 4.619 7.486 4.152 6.978 3.819 C 5.906 3.139 4.508 3.853 4.493 5.122 L 4.49 11.795 C 4.496 12.661 5.272 13.363 6.165 13.365 C 7.058 13.367 7.811 12.669 7.842 11.798 L 7.844 10.726 L 6.032 10.726 L 6.032 7.644 L 12.232 7.643 L 12.225 11.583 C 12.183 13.78 11.071 15.317 9.125 16.218 C 6.911 17.248 4.671 17.181 2.541 15.948 C 0.873 14.978 0.015 13.478 0.005 11.528 L 0 5.572 C -0.016 3.46 0.92 1.912 2.73 0.87 C 5.103 -0.493 8.43 -0.203 10.47 1.546 C 11.675 2.58 12.233 3.91 12.23 5.49 L 12.229 6.23 Z M 17.356 0.516 L 23.822 0.516 L 27.099 16.436 L 22.635 16.436 L 22.081 13.209 L 19.183 13.209 L 18.677 16.429 L 14.171 16.429 L 17.377 0.529 Z M 20.639 3.57 L 19.652 9.97 L 21.584 9.97 L 20.639 3.57 Z M 29.046 11.118 L 33.326 11.118 L 33.371 11.518 C 33.411 11.801 33.427 12.088 33.499 12.362 C 33.791 13.465 35.317 13.91 36.174 13.149 C 36.235 13.093 36.289 13.03 36.334 12.961 C 36.766 12.336 36.604 11.164 35.954 10.783 C 35.408 10.459 34.792 10.243 34.194 10.018 L 31.727 9.148 C 30.227 8.535 29.392 7.418 29.274 5.785 C 29.202 4.788 29.178 3.799 29.586 2.853 C 30.112 1.639 31.044 0.857 32.268 0.43 C 33.812 -0.11 35.391 -0.138 36.968 0.325 C 38.731 0.847 39.752 2.075 40.124 3.845 C 40.238 4.388 40.269 4.949 40.344 5.545 L 36.237 5.545 L 36.207 5.309 L 36.129 4.569 C 35.947 3.603 35.396 3.214 34.416 3.341 C 33.756 3.441 33.444 3.761 33.398 4.441 C 33.332 5.401 33.538 5.805 34.424 6.165 C 35.154 6.46 35.919 6.673 36.67 6.915 C 37.62 7.222 38.534 7.591 39.33 8.215 C 40.08 8.8 40.558 9.555 40.73 10.485 C 41.03 11.962 40.923 13.381 40.015 14.653 C 39.362 15.569 38.458 16.15 37.41 16.517 C 35.826 17.083 34.095 17.077 32.515 16.499 C 30.472 15.771 29.38 14.252 29.095 12.126 C 29.061 11.873 29.051 11.614 29.035 11.356 C 29.03 11.294 29.042 11.228 29.049 11.126 L 29.049 11.13 Z M 104.274 0.518 L 104.274 3.826 L 98.937 3.826 L 98.937 6.479 L 103.712 6.479 L 103.712 9.829 L 98.942 9.829 L 98.942 13.099 L 104.468 13.099 L 104.468 16.426 L 94.555 16.426 L 94.555 0.526 L 104.275 0.526 Z M 59.234 0.511 L 63.596 0.511 L 63.596 13.111 L 68.022 13.111 L 68.022 16.441 L 59.234 16.441 L 59.234 0.509 Z M 152.879 0.511 L 157.235 0.511 L 157.235 13.111 L 161.667 13.111 L 161.667 16.437 L 152.9 16.437 L 152.899 0.521 Z M 164.684 0.511 L 169.02 0.511 L 169.02 13.111 L 173.452 13.111 L 173.452 16.437 L 164.687 16.437 L 164.684 0.521 Z M 75.097 16.433 L 70.769 16.433 L 70.769 0.517 L 75.099 0.517 L 75.097 16.432 Z M 149.235 0.515 L 149.235 16.415 L 144.913 16.415 L 144.913 0.515 L 149.235 0.515 Z"></path>
</svg>