<svg class="text-gray-700 size-32" viewBox="0 0.0003 619.9228 115.7904" fill="currentColor" xmlns="http://www.w3.org/2000/svg">
  <path d="M 546.9 2.024 C 547 2.224 547.3 2.424 547.4 2.524 C 547.8 3.224 548.1 4.624 548.3 5.624 C 548.5 6.524 549.3 11.424 549.8 13.024 C 552.5 21.424 555.6 29.224 558.4 37.524 C 558.8 38.824 559.2 40.124 559.5 41.424 C 559.5 41.524 559.5 41.724 559.4 41.824 C 559.5 42.124 560.4 45.324 560.7 46.524 C 560.9 47.124 560.9 47.724 561 48.224 C 561.1 48.724 561.2 49.024 561.4 49.724 C 561.7 50.824 560.7 51.324 560.3 50.524 C 560.2 50.224 559.2 48.324 559 47.824 C 558.8 47.524 558.1 47.724 557.5 47.224 C 557.1 46.824 555.5 44.224 555 43.324 C 554.8 43.124 554.5 42.924 554.3 42.724 C 554.3 42.624 550.3 36.524 550.2 36.324 C 549.6 35.324 549.1 34.224 548.4 33.224 C 547.9 32.524 545 26.624 544.7 25.924 C 543.5 23.124 540.8 17.824 539 17.424 C 539.3 16.224 538.6 12.824 538.6 10.824 C 538.6 10.224 538.7 8.424 539.4 6.724 C 540.3 4.624 541.9 2.624 542.4 2.024 C 543.3 0.924 544.1 -0.176 545.4 0.024 C 546.7 0.424 546.5 1.424 546.9 2.024 Z"></path>
  <path d="M 551.9 54.224 C 551.8 54.124 550.4 53.024 549.5 52.224 C 548.6 51.424 547.1 50.624 546.6 50.224 C 546.4 50.024 540.4 46.524 540.2 46.424 C 539.4 46.024 536.3 44.124 536 43.924 C 535.5 43.624 532.4 42.124 532.2 42.124 C 532 42.024 526.1 39.624 525.5 39.224 C 525.3 39.124 521.9 37.124 520.3 34.924 C 520.1 34.624 519.6 33.924 519.5 33.624 C 519.4 33.324 519.4 33.124 519.3 32.924 C 518.3 31.324 517 28.424 516.9 27.624 C 516.8 26.824 516.9 26.424 516.9 25.724 C 516.6 24.724 516.7 22.824 518.3 21.724 C 519.5 20.824 520.3 22.624 521.1 23.024 C 522.4 23.624 523.7 24.924 524.8 25.824 C 525.8 26.724 527.6 28.324 529.1 29.524 C 532.6 32.224 539.8 38.024 539.9 38.124 C 541.3 39.224 542.6 40.524 544 41.524 C 545.3 42.524 549.9 46.424 550 46.624 C 550.4 47.224 551.2 47.524 551.6 48.124 C 552.9 49.924 554.8 51.524 556 53.424 C 556.4 54.024 557.2 55.524 557.4 55.624 C 557.6 55.924 557.7 56.224 557.9 56.524 C 558.1 57.024 558.4 58.224 558.8 58.524 C 558.8 58.724 558.8 59.024 558.7 59.124 C 558.3 59.324 557.9 58.824 557.7 58.624 C 557.5 58.424 557.3 58.224 557 58.124 C 556.8 57.924 556.2 57.324 556 57.224 C 555.8 57.024 555.5 56.724 555.3 56.524 C 554.7 55.724 553.3 55.424 551.9 54.224 Z"></path>
  <path d="M 570.2 49.924 C 570.9 49.824 573 49.824 573.7 49.924 C 575.8 50.424 576.9 51.124 577.8 52.224 C 578.7 53.324 579 55.924 578.9 56.224 C 578.8 56.724 577.8 56.924 577.3 57.124 C 576 57.724 574.1 58.424 572.2 57.824 C 571.9 57.724 571.6 57.424 571.3 57.324 L 570.8 57.324 C 570.6 57.224 568.7 55.924 568.5 55.724 C 567.9 55.124 567.4 54.624 567.4 54.024 C 567.4 53.424 568 50.424 570.2 49.924 Z"></path>
  <path d="M 571.9 80.024 C 571.8 79.824 571 78.224 570.9 78.024 C 570.7 77.624 569.6 74.024 569.1 73.024 C 569.1 72.824 568.5 71.324 568.3 71.124 C 568.1 70.824 568.1 70.324 567.9 69.924 C 567.7 69.524 568 69.124 567.9 68.624 C 567.6 67.424 565.3 64.424 565.3 64.424 C 564.8 65.124 564 65.824 563.3 66.324 C 563.1 66.624 559.2 69.724 557.4 71.024 C 554.6 73.024 552.3 75.824 549.4 77.924 C 547.6 79.124 545.9 80.324 544 81.424 C 543.6 81.624 540.1 84.124 539 84.424 C 538.8 84.524 538.2 84.324 538.2 84.124 C 538.2 83.924 540.3 81.124 540.4 81.024 C 540.6 80.824 542.3 78.224 542.4 78.024 C 542.5 77.924 544.7 75.324 545.2 74.624 C 545.7 73.924 548.2 71.124 548.3 71.024 C 548.9 70.224 549.6 69.524 550.3 68.924 C 550.6 68.624 551.8 67.324 552.1 67.124 C 553.1 66.124 554.3 65.224 555.2 64.124 C 555.4 64.024 557.9 60.524 558.5 60.024 C 559.1 59.424 559.8 59.124 560.1 59.024 C 563.2 57.724 566.5 57.424 567.9 57.524 C 569.4 57.624 569.8 58.824 569.9 59.124 C 569.8 59.724 567.6 61.624 567 62.524 C 566.8 62.724 566.6 62.924 566.5 63.124 C 566.4 63.124 567.8 63.924 567.9 63.924 C 568.1 64.024 569.1 64.724 569.3 64.924 C 570.9 66.024 572.1 67.524 573.3 69.124 C 573.4 69.224 574.3 70.424 574.6 70.824 C 574.7 71.024 574.9 70.924 575 71.024 C 575.1 71.124 578.5 77.024 579.9 79.624 C 580.1 79.924 581.6 83.424 582.1 84.324 C 583.1 86.224 584.1 88.024 585.2 89.824 C 585.6 90.424 585.8 91.024 586.1 91.724 C 587 93.424 588.1 95.024 589.1 96.624 C 589.9 97.924 590.5 99.124 591.3 100.424 C 592.1 101.724 592.8 103.024 593.6 104.424 C 594.3 105.724 595.3 106.824 595.8 108.324 C 595.9 108.624 596.3 111.124 596.1 111.624 C 596 112.024 596 112.424 595.6 112.724 C 595.2 113.024 593.8 112.924 593.8 112.924 C 593.5 113.124 591.7 112.924 591.2 112.924 C 588.5 112.224 586.3 111.124 584.5 109.624 C 584.1 109.324 583.2 108.324 582.9 107.724 C 582.7 107.224 580 100.524 579.6 99.224 C 579.2 97.924 578.5 95.824 578.3 95.224 C 578.3 95.124 576.4 90.024 576.3 89.824 C 576.3 89.624 575 86.924 574.4 85.724 C 574.2 85.124 572 80.324 571.9 80.024 Z"></path>
  <path d="M 582.7 74.024 C 582.4 73.824 581 72.724 580.6 72.424 C 580.3 72.224 578.9 71.224 578.6 70.724 C 578.4 70.424 575.7 67.324 575.6 67.224 C 575.6 67.124 573.9 65.724 573.4 65.324 C 572.9 64.924 573.4 64.024 573.9 63.924 C 574.4 63.824 577.6 64.824 579.1 65.424 C 581.2 66.224 585 67.824 587.6 69.424 C 589.2 70.424 597.8 76.524 598.6 77.124 C 599.3 77.624 607.1 83.524 609.8 85.224 C 611.9 86.524 613.8 88.024 615.7 89.424 C 617.4 90.724 619.3 91.824 619.9 94.224 C 620 94.624 619.8 96.224 618.7 96.724 C 617.6 97.324 613.2 98.324 611.4 98.124 C 609.6 97.924 606.9 96.424 606.1 95.924 C 605.6 95.624 604.2 94.524 603.6 94.024 C 603 93.524 598 88.624 596.4 87.524 C 596 87.224 595.2 86.724 594 85.424 C 592.8 84.124 588.6 79.824 588.5 79.724 C 587.5 78.724 583.3 74.324 582.7 74.024 Z"></path>
  <path d="M 535.6 87.124 C 535.5 87.924 534 88.824 533.6 89.424 C 532.4 91.024 531 92.424 529.8 94.024 C 529.4 94.524 528.9 94.924 528.5 95.424 C 527 97.424 525.2 99.224 523.7 101.224 C 523 102.124 521.9 102.924 521.2 103.824 C 518.3 107.724 513.3 115.424 512.8 115.724 C 512.5 115.824 511.9 115.924 511.8 115.124 C 511.6 114.324 511.4 111.824 511.7 110.524 C 511.8 110.124 512.9 107.724 513.3 107.124 C 513.6 106.624 514.4 105.324 514.6 105.224 C 515.2 104.224 515.9 103.424 516.6 102.624 C 517.4 101.624 518.6 100.924 519.4 99.924 C 521.8 96.824 524.3 94.724 527.2 92.124 C 528.3 91.124 530.1 89.624 531.2 88.624 C 532.2 87.624 532.8 87.024 534.1 86.424 C 535.6 85.724 535.7 86.424 535.6 87.124 Z"></path>
  <path d="M 15.5 56.924 L 28.8 56.924 C 28.3 64.324 22.9 69.524 16 69.524 C 8.6 69.524 2.9 63.524 2.9 55.824 C 2.9 48.124 8.7 42.124 16 42.124 C 20.2 42.124 23.9 43.724 26.3 46.624 L 26.6 47.024 L 28.5 45.024 L 28.2 44.724 C 25.3 41.424 20.9 39.524 16 39.524 C 7.2 39.524 0 46.824 0 55.824 C 0 64.824 7.2 72.124 16 72.124 C 24.8 72.124 31.6 65.124 31.6 55.424 L 31.6 54.524 L 15.5 54.524 L 15.5 56.924 Z"></path>
  <path d="M 59.2 61.924 C 59.2 66.624 56 69.624 51 69.624 C 46 69.624 42.8 66.624 42.8 61.924 L 42.8 40.124 L 40.1 40.124 L 40.1 61.324 C 40.1 67.924 44.4 72.124 51.1 72.124 C 57.8 72.124 62.1 68.024 62.1 61.324 L 62.1 40.124 L 59.4 40.124 L 59.4 61.924 L 59.2 61.924 Z"></path>
  <path d="M 286.5 49.324 C 286.5 44.624 289.7 41.624 294.7 41.624 C 299.7 41.624 302.9 44.624 302.9 49.324 L 302.9 71.524 L 305.6 71.524 L 305.6 49.924 C 305.6 43.324 301.3 39.124 294.6 39.124 C 287.9 39.124 283.6 43.224 283.6 49.924 L 283.6 71.624 L 286.3 71.624 L 286.3 49.324 L 286.5 49.324 Z"></path>
  <path d="M 178 38.524 C 174.3 38.524 171.5 40.024 170 42.624 C 168.5 40.024 165.6 38.524 162 38.524 C 156.4 38.524 152.7 42.124 152.7 47.724 L 152.7 71.724 L 155.3 71.724 L 155.3 47.724 C 155.3 43.624 157.8 41.124 162 41.124 C 166.2 41.124 168.7 43.624 168.7 47.724 L 168.7 71.724 L 171.3 71.724 L 171.3 47.724 C 171.3 43.624 173.8 41.124 178 41.124 C 182.2 41.124 184.7 43.624 184.7 47.724 L 184.7 71.724 L 187.3 71.724 L 187.3 47.724 C 187.3 42.224 183.5 38.524 178 38.524 Z"></path>
  <path d="M 76.6 62.224 L 76.6 40.124 L 73.9 40.124 L 73.9 62.324 C 73.9 67.524 77.5 71.624 82.2 71.624 L 86.8 71.624 L 86.8 69.124 L 82.8 69.124 C 79.2 69.124 76.6 66.224 76.6 62.224"></path>
  <path d="M 99.9 40.124 L 92.7 40.124 L 92.7 71.624 L 101 71.624 C 109.4 71.624 115.7 64.824 115.7 55.924 C 115.7 47.024 108.7 40.124 99.9 40.124 Z M 100.9 69.024 L 95.4 69.024 L 95.4 42.724 L 99.3 42.724 C 106.9 42.724 112.9 48.524 112.9 55.924 C 112.9 63.324 107.7 69.024 100.9 69.024 Z"></path>
  <path d="M 135 54.024 C 134 53.724 133 53.424 132 53.124 C 128.8 52.024 126.7 50.624 126.7 47.524 C 126.7 44.124 128.6 42.624 132.8 42.624 L 143.5 42.624 L 143.5 40.024 L 132.1 40.024 C 127.1 40.024 123.8 42.924 123.8 47.324 C 123.8 53.124 128.1 54.924 132.5 56.124 C 133 56.224 133.5 56.424 134 56.524 C 138.1 57.624 142.4 58.824 142.4 63.524 C 142.4 68.224 137.9 68.924 135.2 68.924 L 123.8 68.924 L 123.8 71.424 L 135.4 71.424 C 141.6 71.424 145.2 68.424 145.2 63.224 C 145.3 57.024 139.8 55.424 135 54.024"></path>
  <path d="M 195.8 55.824 C 195.8 64.824 202.5 71.524 211.3 71.524 L 215.3 71.524 L 215.3 69.024 L 212.2 69.024 C 203.5 69.024 198.7 62.624 198.5 56.524 L 215.3 56.524 L 215.3 54.024 L 198.5 54.024 C 198.9 47.824 204.7 42.424 211.2 42.424 L 215.2 42.424 L 215.2 39.924 L 211.2 39.924 C 203.6 40.124 195.8 45.524 195.8 55.824"></path>
  <path d="M 232.7 40.124 L 225.5 40.124 L 225.5 71.624 L 233.9 71.624 C 242.3 71.624 248.6 64.824 248.6 55.924 C 248.6 47.024 241.6 40.124 232.7 40.124 Z M 233.8 69.024 L 228.3 69.024 L 228.3 42.724 L 232.2 42.724 C 239.8 42.724 245.8 48.524 245.8 55.924 C 245.8 63.324 240.6 69.024 233.8 69.024 Z"></path>
  <path d="M 255.2 55.824 C 255.2 64.824 261.9 71.524 270.7 71.524 L 274.7 71.524 L 274.7 69.024 L 271.6 69.024 C 262.9 69.024 258.1 62.624 257.9 56.524 L 274.7 56.524 L 274.7 54.024 L 257.9 54.024 C 258.3 47.824 264.1 42.424 270.6 42.424 L 274.6 42.424 L 274.6 39.924 L 270.6 39.924 C 263 40.124 255.2 45.524 255.2 55.824"></path>
  <polygon points="349.2 53.924 333.2 53.924 333.2 40.124 330.5 40.124 330.5 71.624 333.2 71.624 333.2 56.424 349.2 56.424 349.2 71.624 351.9 71.624 351.9 40.124 349.2 40.124"></polygon>
  <path d="M 376.2 69.524 C 368.8 69.524 363.1 63.524 363.1 55.824 C 363.1 48.124 369 42.124 376.2 42.124 C 383.4 42.124 389.5 48.324 389.5 55.824 C 389.5 63.324 383.5 69.524 376.2 69.524 M 376.2 39.624 C 367.4 39.624 360.2 46.924 360.2 55.924 C 360.2 64.924 367.4 72.224 376.2 72.224 C 385 72.224 392.2 64.924 392.2 55.924 C 392.2 46.924 385 39.624 376.2 39.624"></path>
  <polygon points="394.4 42.624 403.1 42.624 403.1 71.624 405.9 71.624 405.9 42.624 414.6 42.624 414.6 40.124 394.4 40.124"></polygon>
  <path d="M 419.6 55.824 C 419.6 64.824 426.3 71.524 435.1 71.524 L 439.1 71.524 L 439.1 69.024 L 436 69.024 C 427.3 69.024 422.5 62.624 422.3 56.524 L 439.1 56.524 L 439.1 54.024 L 422.3 54.024 C 422.7 47.824 428.5 42.424 435 42.424 L 439 42.424 L 439 39.924 L 435 39.924 C 427.4 40.124 419.6 45.524 419.6 55.824"></path>
  <path d="M 451.7 62.224 L 451.7 40.124 L 449 40.124 L 449 62.324 C 449 67.524 452.6 71.624 457.3 71.624 L 461.9 71.624 L 461.9 69.124 L 457.9 69.124 C 454.2 69.124 451.7 66.224 451.7 62.224"></path>
  <path d="M 476 54.024 C 475 53.724 474 53.424 473 53.124 C 469.8 52.024 467.7 50.624 467.7 47.524 C 467.7 44.124 469.6 42.624 473.9 42.624 L 484.6 42.624 L 484.6 40.024 L 473.2 40.024 C 468.2 40.024 464.9 42.924 464.9 47.324 C 464.9 53.124 469.2 54.924 473.6 56.124 C 474.1 56.224 474.6 56.424 475.1 56.524 C 479.2 57.624 483.5 58.824 483.5 63.524 C 483.5 68.224 479 68.924 476.3 68.924 L 464.9 68.924 L 464.9 71.424 L 476.5 71.424 C 482.7 71.424 486.3 68.424 486.3 63.224 C 486.3 57.024 480.8 55.424 476 54.024"></path>
</svg>  