<svg class="text-gray-700 size-22 mt-2" fill="currentColor" xmlns="http://www.w3.org/2000/svg" viewBox="0 0 2404 895" version="1.1"><path d="" stroke="none" fill-rule="evenodd"></path><path d="M 1397 1.049 C 1380.976 2.331, 1359.248 7.664, 1341.500 14.669 C 1295.369 32.878, 1256.128 76.112, 1242.562 123.674 C 1237.770 140.475, 1236.640 149.874, 1236.573 173.500 C 1236.492 201.886, 1239.297 218.898, 1247.603 240.406 C 1264.939 285.292, 1296.603 319.035, 1338.682 337.464 C 1359.554 346.605, 1378.680 350.499, 1402 350.357 C 1432.150 350.174, 1457.793 342.423, 1481.376 326.363 C 1485.708 323.414, 1489.666 321, 1490.171 321 C 1490.690 321, 1491.026 326.964, 1490.945 334.750 C 1490.866 342.313, 1491.096 349.227, 1491.456 350.115 C 1492.849 353.552, 1496.595 354, 1523.922 354 C 1538.677 354, 1552.150 353.720, 1553.862 353.378 C 1556.382 352.874, 1557.165 352.066, 1557.981 349.128 C 1559.387 344.068, 1559.355 174.818, 1557.947 169.750 L 1556.906 166 1498.953 166 L 1441 166 1441 194.943 C 1441 223.719, 1441.013 223.896, 1443.223 225.443 C 1445.072 226.739, 1449.170 227, 1467.635 227 L 1489.824 227 1490.472 230.831 C 1491.540 237.157, 1489.015 241.609, 1479.879 249.500 C 1452.750 272.933, 1432.502 281.080, 1404.739 279.733 C 1363.012 277.707, 1331.022 249.152, 1318.812 203.031 C 1315.671 191.166, 1315.246 170.554, 1317.830 155.441 C 1321.854 131.912, 1330.138 114.440, 1344.500 99.194 C 1363.025 79.528, 1383.293 70.943, 1407.982 72.305 C 1440.892 74.120, 1466.301 88.864, 1483.144 115.920 C 1487.977 123.684, 1489.041 124.126, 1495.500 121.052 C 1502.964 117.499, 1545.431 85.534, 1546.425 82.720 C 1547.623 79.329, 1545.471 74.435, 1537.534 62.500 C 1530.468 51.873, 1518.542 39.136, 1508.613 31.612 C 1479.422 9.488, 1436.933 -2.146, 1397 1.049 M 932 2.005 C 908.203 3.993, 877.756 13.828, 856.705 26.327 C 807.826 55.349, 775 112.461, 775 168.483 C 775 181.593, 777.521 204.722, 780.537 219.290 C 784.595 238.889, 795.721 264.123, 807.739 280.988 C 816.416 293.165, 834.876 311.617, 847.012 320.246 C 874.768 339.980, 907.640 350.473, 941.500 350.409 C 970.913 350.353, 993.552 343.539, 1019.403 326.960 C 1024.514 323.682, 1028.989 321, 1029.348 321 C 1029.706 321, 1030 327.492, 1030 335.427 C 1030 355.469, 1027.429 354, 1062.510 354 C 1077.492 354, 1091.156 353.719, 1092.875 353.375 L 1096 352.750 1096 259.375 L 1096 166 1038 166 L 980 166 980 194.345 C 980 221.881, 980.060 222.744, 982.103 224.595 C 984.015 226.328, 986.227 226.527, 1006.535 226.803 L 1028.864 227.105 1029.512 230.053 C 1030.241 233.376, 1029.324 238.666, 1027.583 241.171 C 1026.127 243.267, 1012.309 255.221, 1005 260.707 C 987.278 274.010, 963.631 281.122, 942.507 279.502 C 909.362 276.959, 884.379 260.321, 868.177 230 C 859.412 213.597, 854.998 195.882, 855.004 177.140 C 855.012 155.156, 860.670 132.744, 870.387 116.203 C 876.466 105.856, 893.297 88.378, 902.221 83.145 C 921.602 71.782, 943.143 69.235, 967.500 75.427 C 990.649 81.313, 1006.391 92.851, 1021.185 114.774 C 1023.910 118.812, 1026.728 122.342, 1027.448 122.618 C 1030.653 123.848, 1036.560 120.345, 1060.521 103 L 1086.078 84.500 1085.487 81 C 1084.521 75.284, 1080.163 67.301, 1072.337 56.913 C 1052.345 30.373, 1023.521 13.359, 985.187 5.470 C 965.559 1.431, 950.564 0.454, 932 2.005 M 474.717 6.410 C 471.107 8.841, 472.910 4.359, 401.041 189.500 C 380.758 241.750, 358.920 297.913, 352.513 314.306 C 346.105 330.699, 340.825 345.464, 340.778 347.116 C 340.594 353.572, 340.138 353.500, 381.007 353.500 C 417.204 353.500, 417.986 353.458, 420.045 351.399 C 421.301 350.144, 425.707 339.066, 430.985 323.899 C 435.846 309.929, 442 292.314, 444.662 284.754 L 449.500 271.008 508.137 271.004 L 566.775 271 569.370 277.250 C 570.798 280.688, 576.877 297.046, 582.880 313.602 C 588.884 330.158, 594.526 345.116, 595.418 346.842 C 598.858 353.494, 598.722 353.471, 636.954 353.773 C 675.149 354.075, 676.257 353.925, 676.802 348.381 C 677.015 346.208, 659.673 300.472, 617.657 192.403 C 584.961 108.307, 556.086 33.875, 553.490 27 C 550.894 20.125, 547.848 12.829, 546.721 10.786 C 543.207 4.417, 542.091 4.227, 508.217 4.236 C 478.823 4.244, 477.840 4.307, 474.717 6.410 M 99.158 9.866 C 98.404 12.384, 98 23.207, 98 40.911 L 98 68.091 100.455 70.545 C 102.836 72.927, 103.345 73, 117.455 73 L 132 73 131.997 139.750 C 131.995 179.121, 131.556 211.217, 130.927 218 C 129.216 236.456, 125.540 254.461, 122.025 261.602 C 118.592 268.574, 111.551 275.587, 104.609 278.947 C 86.975 287.483, 55.721 284.373, 28.619 271.385 C 15.779 265.231, 15.770 265.242, 6.969 295.295 C 1.548 313.804, 0 320.512, 0 325.491 L 0 331.891 10.750 337.662 C 32.070 349.106, 52.971 354.094, 80 354.187 C 110.238 354.292, 137.989 348.246, 157.258 337.354 C 181.855 323.451, 198.424 297.177, 205.982 260.089 C 211.221 234.381, 211.276 233.012, 211.717 117.650 C 212.102 16.729, 212.018 9.678, 210.409 7.900 C 208.761 6.078, 206.469 6, 154.503 6 L 100.317 6 99.158 9.866 M 1724 180 L 1724 354 1836.465 354 L 1948.930 354 1952.465 350.896 L 1956 347.793 1956 316.943 L 1956 286.094 1952.250 285.053 C 1949.808 284.375, 1922.941 284.009, 1875.250 284.006 L 1802 284 1802 247.500 L 1802 211 1849.809 211 C 1889.504 211, 1897.947 210.759, 1899.559 209.582 C 1901.400 208.237, 1901.515 206.504, 1901.790 176.082 L 1902.080 144 1852.540 144 L 1803 144 1803 110 L 1803 76 1873.168 76 C 1919.807 76, 1945.459 75.630, 1949.668 74.897 L 1956 73.795 1956 42.120 C 1956 15.070, 1955.773 10.120, 1954.443 8.223 L 1952.887 6 1838.443 6 L 1724 6 1724 180 M 2116.491 7.383 C 2114.518 8.825, 2114.498 10.408, 2114.241 177.894 L 2113.983 346.949 2116.908 350.225 L 2119.834 353.500 2155.788 353.807 C 2189.643 354.096, 2191.794 354.009, 2192.621 352.307 C 2193.105 351.313, 2193.630 325.413, 2193.790 294.750 L 2194.079 239 2221.806 239 L 2249.534 239 2282.936 293.985 C 2301.308 324.227, 2317.423 349.989, 2318.749 351.235 C 2321.151 353.493, 2321.280 353.501, 2358.106 353.785 C 2393.385 354.058, 2395.259 353.979, 2399.636 352.043 C 2403.917 350.149, 2404.193 349.799, 2403.805 346.757 C 2403.540 344.685, 2389.926 321.853, 2366.384 284 C 2346.031 251.275, 2329.072 223.987, 2328.698 223.359 C 2328.278 222.656, 2330.606 220.669, 2334.758 218.187 C 2350.972 208.492, 2363.704 194.275, 2372.988 175.500 C 2382.098 157.074, 2385.396 143.102, 2385.262 123.500 C 2385.046 91.755, 2372.648 61.848, 2350.539 39.739 C 2336.048 25.248, 2319.709 15.328, 2300.400 9.299 L 2291.500 6.520 2204.991 6.224 C 2130.518 5.969, 2118.204 6.130, 2116.491 7.383 M 2195 122.956 L 2195 170 2225.250 169.944 C 2265.180 169.870, 2274.062 169.183, 2281.377 165.604 C 2292.037 160.388, 2300.309 149.946, 2303.639 137.500 C 2305.690 129.832, 2305.382 114.447, 2303.024 106.813 C 2299.307 94.778, 2290.970 85.338, 2279 79.610 L 2272.500 76.500 2233.750 76.206 L 2195 75.912 2195 122.956 M 508.697 103.683 C 507.832 105.087, 469 207.298, 469 208.172 C 469 208.627, 486.827 209, 508.617 209 C 545.859 209, 548.205 208.895, 547.763 207.250 C 547.104 204.801, 509.898 103.571, 509.514 103.183 C 509.341 103.009, 508.974 103.234, 508.697 103.683 M 1510.560 492.218 C 1509.252 494.086, 1509 498.327, 1509 518.495 L 1509 542.545 1475.750 545.826 C 1442.808 549.077, 1383.969 555.333, 1314.500 562.970 C 1294.700 565.146, 1270.850 567.644, 1261.500 568.519 C 1252.150 569.395, 1231 571.648, 1214.500 573.527 C 1198 575.405, 1175.050 577.867, 1163.500 578.997 C 1143.401 580.963, 1095.255 586.053, 1026.500 593.482 C 1008.900 595.383, 987.525 597.639, 979 598.494 C 919.806 604.435, 778.919 619.932, 777.795 620.627 C 777.358 620.897, 777 673.018, 777 736.452 C 777 827.798, 777.260 851.885, 778.250 852.263 C 778.938 852.526, 803.446 861.379, 832.713 871.936 C 870.202 885.460, 886.898 891.039, 889.213 890.816 L 892.500 890.500 893.378 881.678 C 893.881 876.616, 893.881 865.834, 893.378 856.383 C 892.524 840.358, 892.554 839.898, 894.500 839.487 C 896.435 839.077, 928.147 835.679, 960 832.468 C 968.525 831.609, 985.175 829.820, 997 828.493 C 1008.825 827.166, 1029.975 824.923, 1044 823.509 C 1058.025 822.094, 1079.051 819.827, 1090.724 818.470 C 1102.398 817.113, 1123.773 814.871, 1138.224 813.488 C 1152.676 812.105, 1178 809.418, 1194.500 807.517 C 1211 805.616, 1238.576 802.699, 1255.781 801.035 C 1272.985 799.370, 1306.510 795.773, 1330.281 793.040 C 1354.051 790.307, 1386.550 786.694, 1402.500 785.009 C 1418.450 783.325, 1452.425 779.712, 1478 776.980 C 1503.575 774.248, 1543.175 770.212, 1566 768.013 C 1603.421 764.406, 1616.985 762.862, 1623.750 761.436 L 1626 760.962 1626 645.588 C 1626 536.641, 1625.903 530.175, 1624.250 529.513 C 1618.523 527.221, 1517.023 491.162, 1514.810 490.634 C 1512.719 490.135, 1511.771 490.488, 1510.560 492.218 M 1520 522.500 C 1520 532.675, 1520.338 541.014, 1520.750 541.031 C 1523.706 541.154, 1598.996 532.543, 1598.981 532.083 C 1598.963 531.509, 1522.210 503.935, 1520.750 503.978 C 1520.338 503.990, 1520 512.325, 1520 522.500 M 1600.500 542.699 C 1598.300 542.898, 1584.350 544.389, 1569.500 546.012 C 1554.650 547.635, 1533.275 549.884, 1522 551.010 C 1510.725 552.136, 1490.250 554.375, 1476.500 555.985 C 1462.750 557.595, 1441.375 559.857, 1429 561.011 C 1416.625 562.165, 1394.800 564.420, 1380.500 566.022 C 1366.200 567.623, 1347.525 569.635, 1339 570.493 C 1330.475 571.351, 1312.025 573.371, 1298 574.981 C 1283.975 576.591, 1264.850 578.626, 1255.500 579.502 C 1238.310 581.113, 1178.040 587.555, 1128.500 593.077 C 1113.650 594.732, 1086.200 597.615, 1067.500 599.485 C 1032.021 603.031, 985.741 607.994, 941.500 612.996 C 927.200 614.613, 903.575 617.081, 889 618.481 C 858.275 621.432, 791.550 628.737, 788.250 629.511 L 786 630.038 786 735.019 L 786 840 790.710 840 C 795.578 840, 848.030 834.516, 900.500 828.522 C 917 826.637, 940.400 824.151, 952.500 822.998 C 964.600 821.844, 985.750 819.592, 999.500 817.993 C 1013.250 816.394, 1034.400 814.160, 1046.500 813.029 C 1067.392 811.076, 1099.086 807.684, 1159.500 800.934 C 1174.350 799.275, 1200.225 796.573, 1217 794.930 C 1233.775 793.286, 1256.725 790.839, 1268 789.491 C 1279.275 788.143, 1300.200 785.893, 1314.500 784.492 C 1328.800 783.091, 1352.650 780.622, 1367.500 779.004 C 1382.350 777.387, 1403.500 775.127, 1414.500 773.981 C 1425.500 772.836, 1443.725 770.806, 1455 769.470 C 1466.275 768.134, 1487.650 765.895, 1502.500 764.493 C 1540.886 760.871, 1598.413 754.533, 1612.250 752.402 L 1616 751.824 1616 646.912 L 1616 542 1610.250 542.168 C 1607.088 542.261, 1602.700 542.499, 1600.500 542.699 M 1544.771 638.607 L 1544.500 658.214 1530 641.380 C 1521.668 631.707, 1514.390 624.157, 1512.890 623.630 C 1511.455 623.125, 1509.093 623.011, 1507.640 623.375 L 1505 624.038 1505 655.519 C 1505 690.714, 1504.314 687.957, 1512.557 685.881 L 1517 684.763 1517 666.381 C 1517 656.272, 1517.338 648.026, 1517.750 648.058 C 1518.162 648.090, 1524.344 655.132, 1531.486 663.708 C 1545.118 680.075, 1548.476 682.713, 1554.104 681.477 L 1557 680.841 1557 649.921 L 1557 619 1551.021 619 L 1545.042 619 1544.771 638.607 M 1465.500 627.982 C 1462.750 628.384, 1455.213 629.282, 1448.750 629.976 L 1437 631.239 1437 662.619 L 1437 694 1439.750 693.986 C 1441.263 693.978, 1450.150 693.085, 1459.500 692 C 1468.850 690.915, 1477.287 690.022, 1478.250 690.014 C 1479.721 690.002, 1480 689.042, 1480 683.988 L 1480 677.976 1476.250 678.490 C 1470.960 679.215, 1453.385 681, 1451.539 681 C 1450.294 681, 1450 679.603, 1450 673.680 L 1450 666.360 1460.685 665.118 C 1477.707 663.139, 1476.558 663.684, 1476.144 657.791 L 1475.789 652.730 1467.644 653.387 C 1463.165 653.748, 1457.362 654.316, 1454.750 654.650 L 1450 655.258 1450 648.708 C 1450 642.365, 1450.086 642.142, 1452.750 641.605 C 1455.248 641.101, 1477.432 638, 1478.534 638 C 1478.790 638, 1479 635.525, 1479 632.500 L 1479 627 1474.750 627.125 C 1472.412 627.193, 1468.250 627.579, 1465.500 627.982 M 1378.302 638.103 C 1366.893 642.489, 1357.422 655.260, 1356.285 667.789 C 1355.547 675.932, 1358.767 686.630, 1363.550 691.924 C 1371.278 700.478, 1383.931 702.561, 1395.444 697.173 C 1401.649 694.270, 1401.937 694.226, 1402.533 696.104 C 1403.057 697.755, 1403.731 697.958, 1406.827 697.399 C 1408.847 697.035, 1410.838 696.545, 1411.250 696.310 C 1411.662 696.074, 1412 688.650, 1412 679.812 L 1412 663.742 1405.750 664.409 C 1402.313 664.776, 1397.362 665.343, 1394.750 665.667 L 1390 666.258 1390 670.581 L 1390 674.905 1395.954 675.202 L 1401.907 675.500 1400.266 678.880 C 1394.627 690.491, 1378.101 691.186, 1371.617 680.083 C 1368.857 675.358, 1368.924 665.927, 1371.758 660.432 C 1374.242 655.613, 1380.916 649.310, 1384.481 648.415 C 1388.611 647.379, 1393.482 648.824, 1398.328 652.524 C 1400.832 654.436, 1403.269 656, 1403.744 656 C 1404.925 656, 1411 649.645, 1411 648.411 C 1411 646.615, 1402.579 639.128, 1398.782 637.547 C 1393.702 635.433, 1384.604 635.680, 1378.302 638.103 M 1310.500 644.945 C 1309.400 645.396, 1307.754 646.605, 1306.841 647.632 C 1304.283 650.514, 1282.317 709.651, 1283.402 710.736 C 1283.615 710.949, 1286.493 710.817, 1289.797 710.443 L 1295.805 709.764 1299.008 701.480 L 1302.211 693.196 1306.355 692.638 C 1308.635 692.331, 1313.089 691.785, 1316.254 691.424 L 1322.008 690.769 1325.511 698.455 L 1329.014 706.142 1334.757 705.446 C 1337.916 705.063, 1340.806 704.574, 1341.181 704.359 C 1341.750 704.031, 1327.393 667.476, 1320.035 650.520 C 1317.190 643.965, 1315.422 642.931, 1310.500 644.945 M 1254.250 651.195 L 1249 652.153 1249 664.414 L 1249 676.675 1237.250 677.920 C 1230.787 678.605, 1224.713 679.383, 1223.750 679.650 C 1222.150 680.093, 1222 679.048, 1222 667.431 L 1222 654.728 1217.417 655.356 C 1214.896 655.702, 1212.421 656.240, 1211.917 656.551 C 1211.393 656.875, 1211 670.179, 1211 687.559 L 1211 718 1216.971 718 L 1222.942 718 1223.221 704.750 L 1223.500 691.500 1233 690.336 C 1238.225 689.695, 1243.949 689.133, 1245.719 689.086 L 1248.938 689 1249.219 701.250 L 1249.500 713.500 1255.500 713.500 L 1261.500 713.500 1261.764 681.750 C 1261.973 656.640, 1261.764 650.025, 1260.764 650.119 C 1260.069 650.184, 1257.138 650.668, 1254.250 651.195 M 1175.500 659.892 L 1171.500 660.500 1171 679.942 L 1170.500 699.385 1161.985 689.942 C 1157.302 684.749, 1150.859 677.262, 1147.667 673.305 C 1141.528 665.694, 1137.469 663.342, 1132.586 664.568 L 1129.971 665.224 1130.236 695.862 L 1130.500 726.500 1136.500 726.500 L 1142.500 726.500 1142.772 707.723 L 1143.044 688.946 1156.977 704.833 C 1171.411 721.292, 1174.537 723.700, 1179.934 722.515 L 1183 721.841 1183 690.421 C 1183 655.251, 1183.829 658.626, 1175.500 659.892 M 1311.260 665.609 C 1310.691 667.199, 1309.077 671.518, 1307.674 675.207 L 1305.122 681.913 1311.811 681.317 C 1315.490 680.989, 1318.668 680.579, 1318.872 680.405 C 1319.077 680.231, 1317.681 676.180, 1315.769 671.403 C 1312.390 662.958, 1312.265 662.798, 1311.260 665.609 M 1084 669.546 C 1073.825 670.806, 1064.938 671.874, 1064.250 671.919 C 1063.278 671.982, 1063 679.010, 1063 703.500 C 1063 720.825, 1063.132 735, 1063.293 735 C 1063.455 735, 1072.323 734.100, 1083 733 C 1093.677 731.900, 1102.995 731, 1103.707 731 C 1104.612 731, 1105 729.306, 1105 725.358 L 1105 719.715 1093.750 720.407 C 1087.563 720.787, 1080.792 721.362, 1078.703 721.684 L 1074.907 722.271 1075.203 714.897 L 1075.500 707.524 1087 705.836 C 1093.325 704.908, 1099.087 704.116, 1099.805 704.075 C 1100.730 704.022, 1101.021 702.618, 1100.805 699.250 L 1100.500 694.500 1087.250 694.875 L 1074 695.249 1074.014 690.875 C 1074.041 682.076, 1073.402 682.488, 1090.116 680.486 C 1098.341 679.501, 1105.254 678.397, 1105.479 678.034 C 1106.228 676.822, 1104.514 667.670, 1103.500 667.460 C 1102.950 667.347, 1094.175 668.285, 1084 669.546 M 1006 677.633 C 1002.425 677.841, 998.487 678.243, 997.250 678.525 L 995 679.038 995 711.038 L 995 743.038 997.750 742.357 C 1006.280 740.243, 1005.469 741.472, 1005.785 730.180 L 1006.070 720 1010.486 720 C 1022.637 720, 1032.368 715.632, 1036.723 708.223 C 1039.092 704.194, 1039.500 702.398, 1039.500 696 C 1039.500 687.783, 1037.706 683.353, 1032.941 679.802 C 1030.197 677.757, 1019.149 676.867, 1006 677.633 M 934 685.935 C 921.878 689.636, 913.623 699.264, 910.958 712.807 C 906.575 735.086, 921.322 751.799, 942.127 748.134 C 958.348 745.277, 968.542 733.447, 969.731 716.101 C 970.385 706.555, 968.527 700.144, 963.354 694.101 C 958.012 687.860, 951.602 684.981, 943.283 685.086 C 939.552 685.133, 935.375 685.515, 934 685.935 M 1008.750 689.716 L 1006 690.133 1006 699.578 L 1006 709.024 1010.250 708.460 C 1019.689 707.207, 1020.767 706.877, 1022.922 704.583 C 1024.159 703.266, 1025.413 700.342, 1025.719 698.059 C 1026.176 694.650, 1025.867 693.487, 1023.963 691.460 C 1022.045 689.419, 1020.786 689.026, 1016.576 689.150 C 1013.784 689.232, 1010.263 689.487, 1008.750 689.716 M 859.205 694.894 C 849.733 698.166, 841.308 706.857, 838.526 716.226 C 832.349 737.024, 844.568 757.012, 863.446 756.994 C 871.091 756.987, 875.339 755.805, 881.298 752.026 C 885.689 749.242, 892 741.213, 892 738.413 C 892 737.755, 890.145 736.475, 887.878 735.568 C 884.124 734.066, 883.565 734.059, 881.628 735.488 C 872.608 742.142, 867.396 745, 864.278 745 C 857.120 745, 850 735.929, 850 726.810 C 850 715.412, 857.992 704.979, 866.700 705.010 C 869.759 705.020, 879.343 709.129, 880.436 710.897 C 881.620 712.812, 884.374 712.033, 888.295 708.675 L 892.090 705.425 889.135 701.345 C 883.340 693.346, 871.239 690.738, 859.205 694.894 M 936.247 698.282 C 925.332 702.410, 919.847 716.856, 925.086 727.677 C 929.206 736.189, 938.646 739.323, 946.470 734.777 C 961.772 725.886, 959.579 699.110, 943.413 697.452 C 941.261 697.232, 938.036 697.605, 936.247 698.282 M 850.500 843.989 C 837.300 845.506, 821.180 847.311, 814.677 848 C 808.175 848.690, 803.225 849.573, 803.677 849.962 C 804.281 850.481, 853.376 868.142, 883.500 878.676 C 884.155 878.905, 884.277 874.448, 883.854 865.763 C 883.499 858.468, 883.162 849.913, 883.104 846.750 L 883 841 878.750 841.116 C 876.413 841.180, 863.700 842.473, 850.500 843.989" stroke="none" fill-rule="evenodd"></path></svg>