<svg class="text-gray-700 size-28" fill="currentColor" stroke-width="0" xmlns="http://www.w3.org/2000/svg" viewBox="0 0 84.354 10.296">
  <path d="M 0 10.066 L 0 0 L 3.739 0 L 4.932 3.71 C 5.297 4.851 5.584 5.805 5.795 6.572 L 5.91 6.572 C 6.121 5.805 6.409 4.851 6.773 3.71 L 7.967 0 L 11.706 0 L 11.706 10.066 L 9.218 10.066 L 9.218 5.666 C 9.218 4.285 9.227 3.202 9.247 2.416 L 9.146 2.401 C 8.983 3.005 8.782 3.691 8.542 4.458 C 8.456 4.726 8.336 5.129 8.182 5.666 L 6.859 10.066 L 4.846 10.066 L 3.523 5.666 C 3.37 5.129 3.25 4.726 3.164 4.458 C 2.924 3.691 2.723 3.005 2.56 2.401 L 2.459 2.416 C 2.478 3.202 2.488 4.285 2.488 5.666 L 2.488 10.066 L 0 10.066 Z M 12.311 8.24 C 12.311 7.578 12.561 7.056 13.059 6.672 C 13.567 6.279 14.33 6.087 15.346 6.097 C 16.256 6.107 16.88 6.025 17.215 5.853 C 17.551 5.68 17.718 5.431 17.718 5.105 C 17.718 4.836 17.608 4.611 17.388 4.429 C 17.167 4.237 16.827 4.141 16.367 4.141 C 15.878 4.141 15.49 4.271 15.202 4.53 C 14.924 4.788 14.766 5.153 14.727 5.622 L 12.412 5.622 C 12.479 4.693 12.839 3.926 13.491 3.322 C 14.143 2.718 15.092 2.416 16.338 2.416 C 17.556 2.416 18.471 2.694 19.085 3.25 C 19.708 3.796 20.019 4.496 20.019 5.349 L 20.019 10.066 L 17.79 10.066 L 17.718 7.808 L 17.647 7.808 C 17.551 8.585 17.254 9.194 16.755 9.635 C 16.256 10.076 15.609 10.296 14.814 10.296 C 14.075 10.296 13.471 10.124 13.002 9.778 C 12.542 9.433 12.311 8.92 12.311 8.24 Z M 14.67 8.067 C 14.67 8.316 14.761 8.508 14.943 8.642 C 15.125 8.777 15.374 8.844 15.691 8.844 C 16.036 8.844 16.362 8.757 16.669 8.585 C 16.985 8.412 17.239 8.182 17.431 7.895 C 17.623 7.597 17.718 7.281 17.718 6.946 L 17.718 5.795 L 17.647 5.795 C 17.599 6.121 17.503 6.385 17.359 6.586 C 17.225 6.787 17.009 6.95 16.712 7.075 C 16.424 7.19 16.022 7.267 15.504 7.305 C 15.245 7.324 15.039 7.401 14.886 7.535 C 14.742 7.66 14.67 7.837 14.67 8.067 Z M 26.53 0 L 28.874 0 L 28.874 10.066 L 26.602 10.066 L 26.53 8.038 L 26.444 8.038 C 26.214 8.805 25.854 9.376 25.366 9.75 C 24.886 10.114 24.335 10.296 23.712 10.296 C 23.117 10.296 22.585 10.138 22.116 9.822 C 21.646 9.505 21.277 9.055 21.008 8.47 C 20.749 7.875 20.62 7.18 20.62 6.385 C 20.62 5.579 20.749 4.879 21.008 4.285 C 21.277 3.691 21.646 3.235 22.116 2.919 C 22.585 2.603 23.117 2.444 23.712 2.444 C 24.335 2.444 24.886 2.631 25.366 3.005 C 25.854 3.37 26.214 3.94 26.444 4.717 L 26.53 4.717 L 26.53 0 Z M 24.762 8.743 C 25.298 8.743 25.725 8.57 26.041 8.225 C 26.367 7.871 26.53 7.41 26.53 6.845 L 26.53 5.91 C 26.53 5.344 26.367 4.884 26.041 4.53 C 25.725 4.175 25.298 3.998 24.762 3.998 C 24.215 3.998 23.779 4.208 23.453 4.63 C 23.137 5.042 22.978 5.627 22.978 6.385 C 22.978 7.142 23.137 7.727 23.453 8.139 C 23.779 8.542 24.215 8.743 24.762 8.743 Z M 29.847 10.066 L 29.847 0 L 32.133 0 L 32.133 3.207 C 32.133 4.146 32.114 4.985 32.076 5.723 L 32.148 5.766 C 32.387 5.412 32.617 5.11 32.838 4.86 C 33.068 4.611 33.394 4.271 33.816 3.839 L 34.032 3.638 L 35.038 2.646 L 37.698 2.646 L 36.232 4.113 C 35.954 4.391 35.383 4.918 34.52 5.694 L 34.535 5.766 L 34.722 5.781 C 35.192 5.79 35.58 5.924 35.887 6.183 C 36.193 6.442 36.447 6.826 36.649 7.334 L 37.713 10.066 L 35.311 10.066 L 34.736 8.513 C 34.602 8.129 34.425 7.837 34.204 7.636 C 33.993 7.425 33.72 7.319 33.384 7.319 L 32.996 7.319 L 32.133 8.182 L 32.133 10.066 L 29.847 10.066 Z M 38.069 10.066 L 38.069 0 L 40.428 0 L 40.428 10.066 L 38.069 10.066 Z M 47.027 2.646 L 49.385 2.646 L 49.385 10.066 L 47.099 10.066 L 47.027 7.78 L 46.941 7.78 C 46.874 8.297 46.706 8.748 46.437 9.131 C 46.169 9.505 45.838 9.793 45.445 9.994 C 45.052 10.195 44.635 10.296 44.194 10.296 C 43.705 10.296 43.25 10.186 42.828 9.965 C 42.406 9.735 42.066 9.405 41.807 8.973 C 41.558 8.532 41.433 8.005 41.433 7.391 L 41.433 2.646 L 43.777 2.646 L 43.777 6.687 C 43.777 7.904 44.309 8.513 45.373 8.513 C 45.881 8.513 46.284 8.34 46.581 7.995 C 46.878 7.65 47.027 7.166 47.027 6.543 L 47.027 2.646 Z M 55.535 2.416 C 56.129 2.416 56.656 2.579 57.117 2.905 C 57.586 3.221 57.951 3.676 58.21 4.271 C 58.478 4.865 58.612 5.56 58.612 6.356 C 58.612 7.152 58.478 7.847 58.21 8.441 C 57.951 9.035 57.586 9.491 57.117 9.807 C 56.656 10.124 56.129 10.282 55.535 10.282 C 54.912 10.282 54.356 10.1 53.867 9.735 C 53.378 9.361 53.018 8.791 52.788 8.024 L 52.702 8.024 L 52.63 10.066 L 50.358 10.066 L 50.358 0 L 52.702 0 L 52.702 4.702 L 52.788 4.702 C 53.018 3.926 53.378 3.35 53.867 2.977 C 54.356 2.603 54.912 2.416 55.535 2.416 Z M 54.471 8.729 C 55.017 8.729 55.449 8.523 55.765 8.11 C 56.091 7.698 56.254 7.113 56.254 6.356 C 56.254 5.599 56.091 5.014 55.765 4.601 C 55.449 4.18 55.017 3.969 54.471 3.969 C 53.934 3.969 53.502 4.146 53.176 4.501 C 52.86 4.856 52.702 5.32 52.702 5.896 L 52.702 6.83 C 52.702 7.387 52.86 7.842 53.176 8.197 C 53.502 8.551 53.934 8.729 54.471 8.729 Z M 64.46 2.416 C 65.054 2.416 65.581 2.579 66.041 2.905 C 66.511 3.221 66.875 3.676 67.134 4.271 C 67.403 4.865 67.537 5.56 67.537 6.356 C 67.537 7.152 67.403 7.847 67.134 8.441 C 66.875 9.035 66.511 9.491 66.041 9.807 C 65.581 10.124 65.054 10.282 64.46 10.282 C 63.836 10.282 63.28 10.1 62.791 9.735 C 62.303 9.361 61.943 8.791 61.713 8.024 L 61.627 8.024 L 61.555 10.066 L 59.283 10.066 L 59.283 0 L 61.627 0 L 61.627 4.702 L 61.713 4.702 C 61.943 3.926 62.303 3.35 62.791 2.977 C 63.28 2.603 63.836 2.416 64.46 2.416 Z M 63.395 8.729 C 63.942 8.729 64.373 8.523 64.69 8.11 C 65.016 7.698 65.179 7.113 65.179 6.356 C 65.179 5.599 65.016 5.014 64.69 4.601 C 64.373 4.18 63.942 3.969 63.395 3.969 C 62.859 3.969 62.427 4.146 62.101 4.501 C 61.785 4.856 61.627 5.32 61.627 5.896 L 61.627 6.83 C 61.627 7.387 61.785 7.842 62.101 8.197 C 62.427 8.551 62.859 8.729 63.395 8.729 Z M 75.671 6.845 L 70.12 6.845 C 70.139 7.382 70.317 7.804 70.652 8.11 C 70.997 8.417 71.438 8.57 71.975 8.57 C 72.387 8.57 72.742 8.47 73.039 8.269 C 73.336 8.067 73.528 7.808 73.614 7.492 L 75.613 7.492 C 75.537 8.115 75.307 8.638 74.923 9.059 C 74.54 9.481 74.084 9.793 73.557 9.994 C 73.03 10.195 72.502 10.296 71.975 10.296 C 70.71 10.296 69.713 9.951 68.984 9.261 C 68.265 8.57 67.905 7.593 67.905 6.327 C 67.905 5.551 68.064 4.87 68.38 4.285 C 68.706 3.691 69.161 3.231 69.746 2.905 C 70.341 2.579 71.031 2.416 71.817 2.416 C 72.613 2.416 73.298 2.588 73.873 2.933 C 74.458 3.269 74.904 3.729 75.211 4.314 C 75.517 4.889 75.671 5.531 75.671 6.241 L 75.671 6.845 Z M 71.759 4.141 C 71.309 4.141 70.93 4.271 70.623 4.53 C 70.326 4.788 70.158 5.162 70.12 5.651 L 73.384 5.651 C 73.346 5.172 73.178 4.803 72.881 4.544 C 72.584 4.276 72.21 4.141 71.759 4.141 Z M 81.593 2.416 C 82.082 2.416 82.538 2.531 82.959 2.761 C 83.381 2.981 83.717 3.312 83.966 3.753 C 84.225 4.184 84.354 4.707 84.354 5.32 L 84.354 10.066 L 82.01 10.066 L 82.01 6.025 C 82.01 5.44 81.871 4.99 81.593 4.673 C 81.315 4.357 80.922 4.199 80.414 4.199 C 79.887 4.199 79.475 4.371 79.177 4.717 C 78.89 5.062 78.746 5.546 78.746 6.169 L 78.746 10.066 L 76.402 10.066 L 76.402 2.646 L 78.688 2.646 L 78.746 4.932 L 78.832 4.932 C 78.909 4.415 79.082 3.969 79.35 3.595 C 79.618 3.211 79.949 2.919 80.342 2.718 C 80.735 2.516 81.152 2.416 81.593 2.416 Z"></path>
</svg>