 <svg class="text-gray-700 size-18" xmlns="http://www.w3.org/2000/svg" viewBox="0 0 822.38 326.63" fill="currentColor">
  <path class="cls-1" d="M0,63C0,34.94,14.78,18.9,41.86,18.9S83.73,34.94,83.73,63v91.26c0,28.06-14.8,44.1-41.87,44.1S0,182.33,0,154.27Zm27.58,93c0,12.53,5.51,17.29,14.28,17.29S56.15,168.55,56.15,156V61.25C56.15,48.72,50.64,44,41.86,44S27.58,48.72,27.58,61.25Z"></path>
  <path class="cls-1" d="M176.8,41.8h27.57V192.21h45.38v25.06H176.8Z"></path>
  <path class="cls-1" d="M337.07,0h27.57V175.47H337.07Z"></path>
  <path class="cls-1" d="M457.72,63c0-28.07,14.77-44.11,41.86-44.11s41.86,16,41.86,44.11v91.26c0,28.06-14.8,44.1-41.86,44.1s-41.86-16-41.86-44.1Zm27.57,93c0,12.53,5.51,17.29,14.29,17.29s14.29-4.76,14.29-17.29V61.25c0-12.53-5.51-17.28-14.29-17.28s-14.29,4.75-14.29,17.28Z"></path>
  <path class="cls-1" d="M634.54,0h27.57V150.41h45.37v25.06H634.54Z"></path>
  <path class="cls-1" d="M794.8,41.8h27.58V217.27H794.8Z"></path>
  <path class="cls-1" d="M287.71,309.85c0,5.77-3.65,9.13-10,9.13h-5.52v7.43h-4.84V301.14h10.36C284.06,301.14,287.71,304.29,287.71,309.85Zm-4.59.14c0-3.1-2.05-4.62-5.66-4.62h-5.27v9.35h5.27C281.07,314.72,283.12,313.17,283.12,310Z"></path>
  <path class="cls-1" d="M331.1,313.78c0,7.25-5.85,12.85-13.47,12.85s-13.46-5.6-13.46-12.85S310,301,317.63,301,331.1,306.52,331.1,313.78Zm-22,0a8.57,8.57,0,0,0,8.59,8.52,8.49,8.49,0,1,0-8.59-8.52Z"></path>
  <path class="cls-1" d="M366.55,326.41l-7.87-10.83-4,4.48v6.35H349.8V301.14h4.84v12.35l11.44-12.35h5.63l-9.64,10.69,10.33,14.58Z"></path>
  <path class="cls-1" d="M409,301.14v4.23H395.29v6.24h12.27v4.23H395.29v6.35H409.4v4.22H390.45V301.14Z"></path>
  <path class="cls-1" d="M472.18,307.46a5.55,5.55,0,0,1-4.4,5.6,6.2,6.2,0,0,1,5.37,6.39c0,4.33-3.57,7-9.35,7H452.25V301.14h11.23C468.86,301.14,472.18,303.56,472.18,307.46Zm-4.95.87c0-1.91-1.51-3-4-3h-6.14v6.14h6.14C465.72,311.47,467.23,310.31,467.23,308.33Zm.91,10.5c0-2.05-1.84-3.32-4.91-3.32h-6.14v6.72h6.14C466.3,322.23,468.14,321,468.14,318.83Z"></path>
  <path class="cls-1" d="M508.75,321.07H496.4l-2.24,5.34h-5l11.08-25.27h5l10.94,25.27H511ZM507,316.92l-4.41-10.61-4.47,10.61Z"></path>
  <path class="cls-1" d="M549.51,326.41l-4.37-7.47a6.56,6.56,0,0,1-.9,0h-5.71v7.43h-4.84V301.14h10.55c6.53,0,10.25,3.15,10.25,8.71,0,4-1.77,6.82-5,8.19l5.56,8.37Zm-11-11.69h5.71c3.61,0,5.63-1.55,5.63-4.73s-2-4.62-5.63-4.62h-5.71Z"></path>
</svg> 