<svg class="text-gray-700 size-22" viewBox="0 0 254.146 99.496" xmlns="http://www.w3.org/2000/svg"><g data-name="Layer 1"><clipPath id="a"><path transform="matrix(1 0 0 -1 0 99.496)" d="M0 99.496h254.146V0H0Z"></path></clipPath><g clip-path="url(#a)" fill="currentColor"><path d="M105.041 96.1c-1.815 0-2.719-.052-2.719-.052l-.009-20.228c0-3.367 1.655-4.68 1.812-4.881h-8.85c.2.232 1.914 1.47 1.914 4.903v18.343c0 2.188-.47 3.468-2.013 4.834l18.635-.002.56-6.52c-3.03 3.344-5.087 3.604-9.33 3.604M6.962 83.36v-9.707c.161-.01.343-.02.544-.02 1.071 0 2.827.217 3.97 1.253a4.423 4.423 0 0 1 1.23 1.854c.336.974.278 1.883.208 2.375-.006.045-.01.108-.018.188-.19 2.17-1.609 3.479-3.972 3.9-.57.105-1.192.157-1.864.157Zm10.902 5.904c-2.44-3.486-4.363-4.586-4.363-4.586 3.121-1.313 4.763-3.758 4.751-6.58-.005-1.23-.222-2.413-.746-3.451-1.095-2.183-3.559-3.725-8.327-3.725-.538 0-9.179.038-9.179.038.972.946 1.837 1.795 1.837 4.656l.004 18.569c0 1.68-.405 2.837-.83 3.596a6.06 6.06 0 0 1-.372.576c-.294.382-.53.587-.587.66h8.82c-.203-.234-1.909-1.42-1.909-4.852l.004-7.78h.011c1.33.062 2.13.449 3.86 2.506.81.96 1.823 2.288 3.19 4.115 2.503 3.339 4.277 5.147 4.998 5.77a2.5 2.5 0 0 0 .304.24h8.445c-3.429-1.884-5.914-4.063-9.91-9.752M38.752 96.286c-.277.05-.56.076-.84.082l-.097.002c-3.98 0-7.727-4.29-8.723-9.98-1.086-6.21 1.48-11.878 5.726-12.63.308-.055.623-.084.94-.084 3.66 0 7.127 3.64 8.432 8.66.112.43.208.867.288 1.317 1.083 6.213-1.484 11.879-5.726 12.633m2.878-24.581a12.586 12.586 0 0 0-5.232-1.158c-.695 0-1.4.062-2.09.184-7.242 1.277-12.007 8.712-10.622 16.572a15.327 15.327 0 0 0 4.553 8.473c2.461 2.318 5.648 3.72 9.012 3.72h.002c.697 0 1.405-.06 2.091-.184 3.486-.615 6.517-2.683 8.534-5.828 2.014-3.138 2.758-6.954 2.087-10.746-.882-5.001-4.149-9.116-8.335-11.033M63.052 94.165v-7.436c.813-1.426 5.878-10.135 7.2-12.203 1.13-1.78 2.432-2.697 4.014-3.593h-9.384c1.889 1.141 1.943 2.316 1.444 3.381l-.18.309-4.754 8.224a1237.682 1237.682 0 0 1-4.692-8.384c-.116-.212-.21-.38-.27-.499-.345-.641-.313-2.047 1.36-3.031H47.154c1.429.912 2.523 1.951 3.744 3.65l7.043 12.144v7.458c0 3.25-1.53 4.534-1.777 4.804-.011.013-.021.022-.027.028h8.817a.426.426 0 0 0-.048-.048c-.33-.324-1.854-1.561-1.854-4.804M80.722 86.078h-3.614l1.746-4.45.87-2.215 2.858 6.665Zm10.773 7.957-10.62-23.642h-1.148l-.01.025-8.92 23.242c-.891 2.455-2.372 4.326-3.67 5.362l7.586-.007c-1.56-1.243-1.07-3.012-.808-3.872l1.367-3.715.665-1.818h7.984c.73 1.686 1.29 2.84 1.796 3.94.34.748.619 1.344.79 1.75.542 1.276 1.218 2.353.059 3.717l8.446.002-.065-.06c-1.621-1.498-2.543-2.867-3.452-4.924M226.066 98.99c-.976-.944-1.84-1.794-1.84-4.654l-.003-18.57c0-1.68.403-2.838.832-3.596.126-.226.25-.413.375-.575.286-.382.527-.588.582-.66h-8.818c.197.234 1.908 1.417 1.908 4.85v10.807h.002v5.559l-12.306-21.193v-.023h-.013c-2.726.01-6.952.03-6.952.03.975.945 1.84 1.795 1.84 4.655l.003 18.57c0 1.68-.404 2.839-.832 3.596a4.805 4.805 0 0 1-.375.576c-.286.38-.527.587-.583.659h8.82c-.198-.234-1.909-1.417-1.909-4.851l.001-2.631v-8.175h-.003v-5.516L219.09 99.02h4.004l-.009-.017 2.982-.013M159.626 83.364v-9.707c.16-.01.343-.019.544-.019 1.07 0 2.827.217 3.969 1.252a4.423 4.423 0 0 1 1.23 1.854c.338.974.279 1.883.209 2.375a8.278 8.278 0 0 0-.018.19c-.191 2.17-1.61 3.477-3.972 3.9-.571.103-1.192.155-1.863.155Zm10.903 5.904c-2.442-3.486-4.364-4.586-4.364-4.586 3.12-1.314 4.763-3.758 4.75-6.578-.004-1.232-.221-2.415-.744-3.452-1.096-2.184-3.56-3.726-8.328-3.726-.538 0-9.18.04-9.18.04.973.944 1.838 1.794 1.838 4.654l.004 18.57c0 1.68-.405 2.836-.83 3.595a5.934 5.934 0 0 1-.372.576c-.294.382-.531.588-.587.66h8.819c-.201-.235-1.908-1.419-1.908-4.85l.004-7.78h.012c1.329.06 2.129.447 3.858 2.505.81.96 1.824 2.288 3.19 4.115 2.504 3.338 4.278 5.147 4.999 5.771.147.128.25.21.304.24h8.445c-3.43-1.886-5.914-4.065-9.91-9.754M190.5 96.102c-1.816 0-2.72-.052-2.72-.052l-.003-9.635h2.61c1.082 0 3.036.035 3.445 1.196v-5.305a2.586 2.586 0 0 1-1.479.422h-4.576l.002-8.87c5.648.01 7.131.32 10.111 3.604l-.54-6.52-16.715-.003a6.57 6.57 0 0 1 1.134 1.264c.456.767.88 1.933.88 3.641v18.27c0 1.71-.424 2.875-.88 3.641a6.461 6.461 0 0 1-1.134 1.266l18.634-.002.564-6.519c-3.036 3.344-5.094 3.602-9.333 3.602M138.235 86.078h-3.614l1.746-4.45.87-2.215 2.858 6.665Zm14.29 12.94a1.91 1.91 0 0 1-.065-.058c-1.621-1.5-2.542-2.868-3.453-4.925l-10.62-23.642h-1.148l-.008.025-8.921 23.242c-.891 2.455-2.372 4.326-3.67 5.362l7.586-.007c-1.561-1.243-1.07-3.012-.81-3.872l1.369-3.715.665-1.818h7.984c.73 1.686 1.29 2.84 1.796 3.94.34.748.619 1.344.79 1.75.542 1.276 1.218 2.353.058 3.717l8.447.002m-14.29-12.941h-3.614l1.746-4.45.87-2.215 2.858 6.665Zm10.772 7.957-10.62-23.642h-1.148l-.008.025-8.921 23.242c-.891 2.455-2.372 4.326-3.67 5.362l7.586-.007c-1.561-1.243-1.07-3.012-.81-3.872l1.369-3.715.665-1.818h7.984c.73 1.686 1.29 2.84 1.796 3.94.34.748.619 1.344.79 1.75.542 1.276 1.218 2.353.058 3.717l8.447.002a1.91 1.91 0 0 1-.065-.06c-1.621-1.498-2.542-2.867-3.453-4.924M239.856 86.078h-3.614l1.746-4.45.87-2.215 2.858 6.665Zm14.29 12.94a1.91 1.91 0 0 1-.065-.058c-1.62-1.5-2.542-2.868-3.453-4.925L240.01 70.393h-1.148l-.009.025-8.92 23.242c-.892 2.455-2.373 4.326-3.67 5.362l7.585-.007c-1.56-1.243-1.069-3.012-.809-3.872l1.368-3.715.665-1.818h7.984c.73 1.686 1.291 2.84 1.796 3.94.341.748.62 1.344.791 1.75.541 1.276 1.218 2.353.057 3.717l8.447.002m-14.29-12.941h-3.614l1.746-4.45.87-2.215 2.858 6.665Zm10.772 7.957L240.01 70.393h-1.148l-.009.025-8.92 23.242c-.892 2.455-2.373 4.326-3.67 5.362l7.585-.007c-1.56-1.243-1.069-3.012-.809-3.872l1.368-3.715.665-1.818h7.984c.73 1.686 1.291 2.84 1.796 3.94.341.748.62 1.344.791 1.75.541 1.276 1.218 2.353.057 3.717l8.447.002a1.91 1.91 0 0 1-.065-.06c-1.62-1.498-2.542-2.867-3.453-4.924M140.825 26.575c2.054-1.187 8.395-8.866 10.73-11.733.485-.595.255-.987-.502-.866-3.65.585-13.473 2.239-15.52 3.429a5.292 5.292 0 0 0-1.94 7.232c1.458 2.533 4.698 3.397 7.232 1.938m-5.293 12.579c2.048 1.184 11.871 2.84 15.521 3.429.757.122.987-.271.501-.866-2.334-2.869-8.675-10.548-10.729-11.734a5.291 5.291 0 0 0-7.232 1.938 5.293 5.293 0 0 0 1.94 7.233m-8.249-3.588a5.29 5.29 0 0 0-5.294 5.292c0 2.374 3.474 11.706 4.792 15.161.137.36.318.538.502.538.175 0 .36-.178.494-.538 1.32-3.455 4.8-12.787 4.8-15.161a5.294 5.294 0 0 0-5.294-5.292m0-35.566c-.184 0-.365.179-.502.538-1.318 3.455-4.792 12.79-4.792 15.159a5.294 5.294 0 1 0 10.587 0c0-2.369-3.48-11.704-4.799-15.159-.134-.359-.319-.535-.494-.538m-13.54 29.983c-2.055 1.186-8.403 8.865-10.735 11.734-.48.595-.257.988.5.866 3.65-.589 13.473-2.245 15.528-3.429a5.294 5.294 0 1 0-5.293-9.171m5.293-12.578c-2.055-1.19-11.879-2.844-15.528-3.429-.757-.121-.98.271-.5.866 2.332 2.867 8.68 10.546 10.735 11.733a5.293 5.293 0 1 0 5.293-9.17"></path></g></g></svg>