<svg class="text-gray-700 size-18" viewBox="0 0 765 306" fill="none" xmlns="http://www.w3.org/2000/svg">
  <path d="M505.419 64.0752C487.042 64.0752 469.43 72.4982 460.241 96.2357V64.8409C452.584 67.1381 442.63 68.6695 432.675 68.6695C427.315 68.6695 421.955 68.6696 415.829 67.9038V73.2639C431.144 73.2639 436.504 80.9212 436.504 97.0014V181.231C436.504 196.546 431.144 200.374 415.829 200.374V205.734C421.955 205.734 436.504 204.969 447.99 204.969C459.476 204.969 472.493 205.734 477.853 205.734V200.374C464.836 200.374 460.241 195.78 460.241 181.231V121.505C460.241 93.9385 475.556 72.4982 497.762 72.4982C516.905 72.4982 519.202 87.047 519.202 103.893V181.997C519.202 197.311 514.608 201.14 501.591 201.14V206.5C506.951 206.5 519.968 205.734 531.454 205.734C542.94 205.734 557.489 206.5 563.614 206.5V201.14C549.066 201.14 542.94 196.546 542.94 181.997V110.019C542.94 91.6413 540.643 81.6869 533.751 74.7954C527.625 67.9038 518.437 64.0752 505.419 64.0752ZM395.155 64.8409C387.498 67.1381 377.543 68.6695 367.589 68.6695C362.229 68.6695 356.869 68.6696 350.743 67.9038V73.2639C366.057 73.2639 371.417 80.9212 371.417 97.0014V181.231C371.417 196.546 366.057 200.374 350.743 200.374V205.734C356.869 205.734 370.652 204.969 382.903 204.969C395.155 204.969 408.938 205.734 415.064 205.734V200.374C400.515 200.374 394.389 195.78 394.389 181.231V64.8409H395.155ZM380.606 0.52002C371.417 0.52002 363.76 8.17727 363.76 18.1317C363.76 27.3204 371.417 35.7434 380.606 35.7434C389.795 35.7434 397.452 28.0861 397.452 18.1317C398.218 8.17727 390.56 0.52002 380.606 0.52002ZM335.428 68.6695C327.005 68.6695 322.411 68.6696 313.222 67.9038V73.2639C327.005 74.0296 333.131 77.8583 333.131 86.2812C333.131 89.3441 332.365 93.9385 330.068 98.5328L300.205 176.637L267.279 94.7042C264.982 89.3441 264.216 85.5155 264.216 83.2183C264.216 74.0296 272.639 74.0296 283.359 74.0296V67.9038C272.639 68.6696 259.621 68.6695 248.901 68.6695C239.713 68.6695 232.055 67.9038 225.164 67.9038V73.2639C228.992 73.2639 235.118 74.0296 240.478 88.5784L289.485 208.032H294.079L337.725 92.407C343.085 78.624 348.446 74.0296 355.337 73.2639V67.9038C349.977 68.6696 343.085 68.6695 335.428 68.6695Z" fill="currentColor"></path>
  <path d="M622.575 72.498C642.484 78.6238 651.673 100.83 639.421 145.242C626.404 189.654 607.261 204.203 587.352 198.077C567.443 191.951 558.254 169.745 570.506 125.333C582.758 80.1553 602.667 66.3722 622.575 72.498ZM624.107 67.1379C590.415 57.1835 558.254 69.4351 544.471 117.676C530.688 165.916 552.129 192.717 585.821 202.671C619.512 212.626 651.673 200.374 665.456 152.133C678.473 104.658 657.799 77.0924 624.107 67.1379Z" fill="currentColor"></path>
  <path d="M180.751 69.4362C202.191 69.4362 217.506 88.5794 217.506 136.82C217.506 185.061 202.191 204.204 180.751 204.204C159.311 204.204 143.996 185.061 143.996 136.82C143.996 89.3451 159.311 69.4362 180.751 69.4362ZM180.751 64.0762C144.762 64.0762 116.43 85.5165 116.43 136.82C116.43 188.124 144.762 209.564 180.751 209.564C216.74 209.564 245.072 188.124 245.072 136.82C245.838 85.5165 217.506 64.0762 180.751 64.0762Z" fill="currentColor"></path>
  <path d="M51.3444 12.7729C25.3097 12.7729 0.806497 27.3217 0.806497 59.4822C0.806497 90.1112 23.0125 104.66 48.2815 119.974C72.7847 135.289 89.6306 147.541 89.6306 168.981C89.6306 194.25 72.0189 204.97 55.173 204.97C20.7153 204.97 8.46375 176.638 6.16657 143.712H0.806497C0.806497 181.998 0.806497 197.313 0.0407715 208.033H6.16657C6.9323 200.376 8.46375 196.547 12.2924 196.547C14.5895 196.547 16.8867 197.313 21.4811 200.376C29.1383 204.97 39.0928 210.33 58.2359 210.33C89.6306 210.33 114.9 193.484 114.9 159.026C114.9 129.929 94.225 116.146 66.6589 98.5342C42.9214 83.2197 21.4811 74.031 21.4811 49.5278C21.4811 31.1504 35.2641 18.133 53.6415 18.133C83.5048 18.133 95.7564 44.1677 97.2879 70.2023H103.414C103.414 36.5104 104.179 25.0246 104.945 15.0701H98.8193C98.0536 22.7274 96.5221 26.556 92.6935 26.556C90.3963 26.556 88.0992 25.7903 83.5048 22.7274C76.6133 18.133 68.956 12.7729 51.3444 12.7729Z" fill="currentColor"></path>
  <path d="M733.605 213.39C720.588 213.39 708.336 220.281 708.336 234.83C708.336 248.613 719.056 255.505 731.308 263.162C742.028 270.054 750.451 275.414 750.451 285.368C750.451 297.62 742.028 301.448 735.137 301.448C718.291 301.448 713.696 289.197 711.399 270.054H707.571C707.571 286.899 707.571 296.088 706.805 303.745H710.633C711.399 299.917 712.931 297.62 714.462 297.62C715.228 297.62 715.228 297.62 715.994 298.385C718.291 299.917 720.588 301.448 722.885 302.98C726.714 304.511 731.308 305.277 735.902 305.277C751.217 305.277 765 296.854 765 281.539C765 267.756 755.046 260.865 742.028 252.442C730.542 244.785 720.588 240.19 720.588 230.236C720.588 221.813 726.714 217.218 734.371 217.218C749.685 217.218 755.046 230.236 757.343 242.487H761.171C761.171 227.939 761.171 220.281 761.937 214.156H758.108C757.343 218.75 756.577 221.813 754.28 221.813C753.514 221.813 752.748 221.047 751.217 220.281C748.92 217.219 742.028 213.39 733.605 213.39ZM657.798 299.151C642.484 299.151 634.827 286.134 634.827 258.568C634.827 230.236 644.781 217.218 657.798 217.218C666.221 217.218 673.113 221.047 676.942 230.236V280.008C674.644 292.26 666.221 299.151 657.798 299.151ZM692.256 170.509C687.662 172.041 681.536 172.806 674.644 172.806C671.581 172.806 667.753 172.806 663.924 172.041V175.869C673.879 175.869 676.942 180.464 676.942 190.418V222.579C672.347 215.687 664.69 212.624 657.033 212.624C636.358 212.624 618.746 227.939 618.746 257.802C618.746 288.431 631.764 302.98 653.204 302.98C664.69 302.98 673.113 297.62 676.942 287.665V302.214C681.536 300.683 687.662 299.917 694.553 299.917C697.616 299.917 701.445 299.917 705.273 300.683V296.854C695.319 296.854 692.256 292.26 692.256 282.305V170.509ZM589.649 213.39C578.163 213.39 566.677 218.75 560.551 233.299V213.39C555.957 214.921 549.831 215.687 542.94 215.687C539.877 215.687 536.048 215.687 532.22 214.921V218.75C542.174 218.75 545.237 223.344 545.237 233.299V285.368C545.237 294.557 541.408 297.62 532.22 297.62V301.448C536.048 301.448 545.237 300.683 552.128 300.683C559.786 300.683 567.443 301.448 571.271 301.448V297.62C562.849 297.62 559.786 294.557 559.786 285.368V248.613C559.786 231.767 568.974 217.984 583.523 217.984C595.775 217.984 597.306 227.173 597.306 237.127V285.368C597.306 294.557 594.243 297.62 585.82 297.62V301.448C589.649 301.448 597.306 300.683 604.963 300.683C612.621 300.683 621.044 301.448 624.872 301.448V297.62C615.684 297.62 611.855 294.557 611.855 285.368V240.956C611.855 229.47 610.323 223.344 605.729 218.75C603.432 215.687 598.072 213.39 589.649 213.39ZM508.482 283.837C503.122 293.025 496.23 296.854 489.339 296.854C481.682 296.854 475.556 292.26 475.556 282.305C475.556 269.288 484.745 264.693 491.636 260.865C502.356 255.505 506.185 253.973 507.716 251.676V283.837H508.482ZM496.23 213.39C485.51 213.39 477.087 216.453 472.493 219.516C467.899 222.579 464.836 226.407 464.836 231.767C464.836 237.893 467.899 242.487 474.024 242.487C480.15 242.487 483.979 239.425 483.979 233.299C483.979 227.939 480.15 224.11 476.322 223.344C480.15 218.75 487.042 217.218 493.168 217.218C501.591 217.218 508.482 220.281 508.482 234.064V244.785C508.482 251.676 499.293 253.973 488.573 259.333C471.727 266.225 461.007 272.351 461.007 285.368C461.007 298.385 470.961 303.745 482.447 303.745C490.87 303.745 500.825 300.683 508.482 289.197C508.482 296.854 511.545 303.745 523.031 303.745C529.922 303.745 533.751 301.448 538.345 297.62L536.048 293.791C533.751 296.088 531.454 297.62 528.391 297.62C524.562 297.62 523.031 295.322 523.031 289.962V243.253C523.031 231.767 521.499 224.876 516.139 219.516C513.076 215.687 505.419 213.39 496.23 213.39ZM446.458 213.39C434.972 213.39 425.784 224.876 421.955 234.83V214.156C417.361 215.687 411.235 216.453 404.343 216.453C401.281 216.453 397.452 216.453 393.623 215.687V219.516C403.578 219.516 406.641 224.11 406.641 234.064V286.134C406.641 295.322 402.812 298.385 393.623 298.385V302.214C397.452 302.214 405.875 301.448 413.532 301.448C424.252 301.448 434.207 302.214 439.567 302.214V298.385C428.081 298.385 421.955 295.322 421.955 284.602V249.379C421.955 237.127 431.144 217.984 445.693 217.984C447.224 217.984 448.755 218.75 449.521 219.516C446.458 221.047 443.395 224.11 443.395 228.704C443.395 234.064 447.99 237.127 452.584 237.127C458.71 237.127 462.539 232.533 462.539 226.407C461.773 219.516 455.647 213.39 446.458 213.39ZM359.166 300.683C352.274 300.683 345.383 297.62 340.023 292.26V239.425C343.851 225.641 352.274 218.75 361.463 218.75C375.246 218.75 382.137 231.767 382.137 259.333C381.372 287.665 373.714 300.683 359.166 300.683ZM366.057 213.39C354.571 213.39 344.617 219.516 340.023 231.002V176.635C335.428 178.167 329.302 178.932 322.411 178.932C319.348 178.932 315.519 178.932 311.691 178.167V181.995C321.645 181.995 324.708 186.59 324.708 196.544V293.791C324.708 296.854 324.708 300.683 323.177 303.745L326.239 305.277L338.491 295.322C344.617 302.214 353.04 305.277 360.697 305.277C381.372 305.277 398.218 289.962 398.218 260.099C398.218 228.704 384.435 213.39 366.057 213.39Z" fill="currentColor"></path>
</svg>