<svg class="text-gray-700 size-24" xmlns="http://www.w3.org/2000/svg" viewBox="0 0 1139.038 330.397"><defs><clipPath id="a" clipPathUnits="userSpaceOnUse"><path d="M0 256.192h878.145V0H0Z"></path></clipPath></defs><path d="M0 0h18.422v-2.621H2.876v-8.702h13.908v-2.621H2.876v-8.92h15.728v-2.621H0Z" style="fill-opacity:1;fill-rule:nonzero;stroke:none;fill:currentColor" transform="matrix(1.33333 0 0 -1.33333 426.966 294.77)"></path><g clip-path="url(#a)" transform="matrix(1.33333 0 0 -1.33333 .342 341.542)"><path d="m0 0 1.784 2.111C4.441-.292 6.99-1.493 10.521-1.493c3.423 0 5.68 1.82 5.68 4.333v.072c0 2.366-1.274 3.714-6.626 4.843-5.861 1.273-8.555 3.167-8.555 7.353v.074c0 4.005 3.531 6.954 8.373 6.954 3.713 0 6.372-1.056 8.957-3.132l-1.675-2.221c-2.367 1.93-4.734 2.768-7.355 2.768-3.313 0-5.424-1.821-5.424-4.114v-.074c0-2.402 1.31-3.75 6.917-4.951 5.679-1.237 8.301-3.312 8.301-7.209v-.072c0-4.369-3.641-7.209-8.702-7.209C6.371-4.078 3.059-2.73 0 0" style="fill-opacity:1;fill-rule:nonzero;stroke:none;fill:currentColor" transform="translate(349.938 13.308)"></path><path d="M0 0h-8.556v2.658h20.024V0H2.912v-22.827H0Z" style="fill-opacity:1;fill-rule:nonzero;stroke:none;fill:currentColor" transform="translate(386.897 32.421)"></path><path d="M404.413 13.417h3.35V9.594h-3.35z" style="fill-opacity:1;fill-rule:nonzero;stroke:none;fill:currentColor"></path><path d="m0 0-4.806-1.492-.691 2.33L.729 2.985H2.84v-25.667H0Z" style="fill-opacity:1;fill-rule:nonzero;stroke:none;fill:currentColor" transform="translate(444.685 32.276)"></path><path d="M0 0v.073c0 3.24-2.658 5.789-6.48 5.789-3.824 0-6.117-2.803-6.117-5.971v-.073c0-3.24 2.548-5.57 6.262-5.57C-2.439-5.752 0-2.912 0 0m.546-4.696v.509c-1.602-2.475-3.932-4.041-7.209-4.041-5.242 0-8.883 3.313-8.883 7.901v.072c0 4.843 3.75 8.665 9.175 8.665 2.912 0 5.06-.982 6.698-2.621 1.93-1.93 3.168-4.769 3.168-9.866v-.073c0-8.082-4.296-13.798-10.595-13.798-3.313 0-5.715 1.346-7.864 3.131l1.675 2.22c2.075-1.82 4.005-2.73 6.263-2.73 4.914 0 7.572 5.134 7.572 10.631" style="fill-opacity:1;fill-rule:nonzero;stroke:none;fill:currentColor" transform="translate(477.784 27.106)"></path><path d="M0 0v.073c0 3.24-2.658 5.789-6.48 5.789-3.824 0-6.118-2.803-6.118-5.971v-.073c0-3.24 2.549-5.57 6.263-5.57C-2.439-5.752 0-2.912 0 0m.546-4.696v.509c-1.602-2.475-3.932-4.041-7.209-4.041-5.242 0-8.883 3.313-8.883 7.901v.072c0 4.843 3.75 8.665 9.175 8.665 2.912 0 5.06-.982 6.698-2.621 1.93-1.93 3.168-4.769 3.168-9.866v-.073c0-8.082-4.296-13.798-10.595-13.798-3.313 0-5.715 1.346-7.864 3.131l1.675 2.22c2.075-1.82 4.005-2.73 6.263-2.73 4.915 0 7.572 5.134 7.572 10.631" style="fill-opacity:1;fill-rule:nonzero;stroke:none;fill:currentColor" transform="translate(509.356 27.106)"></path><path d="M0 0v.073c0 3.24-2.658 5.789-6.48 5.789-3.824 0-6.118-2.803-6.118-5.971v-.073c0-3.24 2.549-5.57 6.263-5.57C-2.439-5.752 0-2.912 0 0m.546-4.696v.509c-1.602-2.475-3.932-4.041-7.209-4.041-5.242 0-8.883 3.313-8.883 7.901v.072c0 4.843 3.75 8.665 9.175 8.665 2.912 0 5.06-.982 6.698-2.621 1.93-1.93 3.168-4.769 3.168-9.866v-.073c0-8.082-4.296-13.798-10.595-13.798-3.313 0-5.715 1.346-7.864 3.131l1.675 2.22c2.075-1.82 4.005-2.73 6.263-2.73 4.915 0 7.572 5.134 7.572 10.631" style="fill-opacity:1;fill-rule:nonzero;stroke:none;fill:currentColor" transform="translate(540.926 27.106)"></path><path d="M0 0c.848 38.77-3.248 63.04-34.909 64.279-38.794 1.519-49.781-67.111-49.781-85.29 0-12.811-3.934-80.784 46.404-86.391C5.666-112.297 7.909-61.796 8.465-59.686" style="fill:none;stroke-width:8.486;stroke-linecap:round;stroke-linejoin:round;stroke-miterlimit:4;stroke-dasharray:none;stroke-opacity:1;stroke:currentColor" transform="translate(89.005 187.353)"></path><path d="M0 0s-34.149 25.611-42.404-36.198c0 0-6.368-45.69 23.13-44.737 31.8 1.027 30.357 71.478 31.802 82.753 0 0-3.284-49.781-1.445-59.204 1.927-9.878 6.505-16.504 15.179-14.577" style="fill:none;stroke-width:8.486;stroke-linecap:round;stroke-linejoin:round;stroke-miterlimit:4;stroke-dasharray:none;stroke-opacity:1;stroke:currentColor" transform="translate(158.518 164.628)"></path><path d="M0 0s-34.149 25.611-42.404-36.198c0 0-6.368-45.69 23.13-44.737 31.8 1.027 30.357 71.478 31.802 82.753 0 0-3.284-49.781-1.445-59.204 1.927-9.878 6.505-16.504 15.178-14.577" style="fill:none;stroke-width:8.486;stroke-linecap:round;stroke-linejoin:round;stroke-miterlimit:4;stroke-dasharray:none;stroke-opacity:1;stroke:currentColor" transform="translate(647.08 164.628)"></path><path d="M0 0s-27.156-21.925-48.026 22.648c0 0-6.286 14.214 3.614 19.033C-34.42 46.544-7.549 47.402-6.104-38.7c0 0 .363-45.626-18.893-45.626-17.728.482-16.283 48.696-13.392 69.388 2.892 20.693 11.233 131.549 11.233 131.549" style="fill:none;stroke-width:8.486;stroke-linecap:round;stroke-linejoin:round;stroke-miterlimit:4;stroke-dasharray:none;stroke-opacity:1;stroke:currentColor" transform="translate(242.684 118.57)"></path><path d="M0 0s15.606 4.306 20.537 16.444" style="fill:none;stroke-width:8.486;stroke-linecap:round;stroke-linejoin:round;stroke-miterlimit:4;stroke-dasharray:none;stroke-opacity:1;stroke:currentColor" transform="translate(263.402 185.546)"></path><path d="M0 0s38.422-7.584 42.579 23.454c0 0 4.354 28.627-20.536 31.47-2.439.037-19.845 1.96-22.833-31.174-2.988-33.133 6.413-54.038 24.594-54.355 18.18-.317 24.925 19.845 25.519 26.287" style="fill:none;stroke-width:8.486;stroke-linecap:round;stroke-linejoin:round;stroke-miterlimit:4;stroke-dasharray:none;stroke-opacity:1;stroke:currentColor" transform="translate(255.38 114.463)"></path><path d="M0 0s-63.127-15.444-65.87 34.076c0 0-1.93 23.588 21.233 46.043 23.163 22.456 68.524 43.682 75.28-10.251 0 0 3.12-29.624 3.12-50.451 0-7.21.623-24.385 2.081-40.282 1.627-17.723 6.234-33.857 18.444-32.823 23.163 1.961 55.24 99.745 40.763 166.486" style="fill:none;stroke-width:8.486;stroke-linecap:round;stroke-linejoin:round;stroke-miterlimit:4;stroke-dasharray:none;stroke-opacity:1;stroke:currentColor" transform="translate(403.04 137.171)"></path><path d="M0 0s1.747-21.823-6.685-51.699c-4.057-14.372-2.651-25.29 10.88-26.494.959 0 8.153-1.217 11.34 9.396" style="fill:none;stroke-width:8.486;stroke-linecap:round;stroke-linejoin:round;stroke-miterlimit:4;stroke-dasharray:none;stroke-opacity:1;stroke:currentColor" transform="translate(519.132 161.672)"></path><path d="M0 0s4.493.111 6.592 6.142" style="fill:none;stroke-width:8.486;stroke-linecap:round;stroke-linejoin:round;stroke-miterlimit:4;stroke-dasharray:none;stroke-opacity:1;stroke:currentColor" transform="translate(519.046 179.936)"></path><path d="M0 0s1.747-21.823-6.685-51.699c-4.057-14.372-2.651-25.29 10.88-26.494.959 0 8.153-1.217 11.34 9.396" style="fill:none;stroke-width:8.486;stroke-linecap:round;stroke-linejoin:round;stroke-miterlimit:4;stroke-dasharray:none;stroke-opacity:1;stroke:currentColor" transform="translate(833.51 161.672)"></path><path d="M0 0s4.493.111 6.592 6.142" style="fill:none;stroke-width:8.486;stroke-linecap:round;stroke-linejoin:round;stroke-miterlimit:4;stroke-dasharray:none;stroke-opacity:1;stroke:currentColor" transform="translate(833.423 180.017)"></path><path d="m0 0 1.041-57.615s.078-17.861 11.565-17.106c9.724.639 28.244 30.962 23.852 92.641" style="fill:none;stroke-width:8.486;stroke-linecap:round;stroke-linejoin:round;stroke-miterlimit:4;stroke-dasharray:none;stroke-opacity:1;stroke:currentColor" transform="translate(551.881 158.336)"></path><path d="M0 0s41.575-13.543 54.166 57.843c0 0 8.867 57.504-13.468 61.189-22.334 3.684-33.47-62.33-29.615-99.423 3.26-31.375 13.974-66.515 43.367-43.851" style="fill:none;stroke-width:8.486;stroke-linecap:round;stroke-linejoin:round;stroke-miterlimit:4;stroke-dasharray:none;stroke-opacity:1;stroke:currentColor" transform="translate(675.557 114.697)"></path><path d="M0 0s-5.173 14.968-19.682 14.255c0 0-28.667-2.178-28.667-48.224 0 0 1.013-40.632 24.331-40.632 25.568 0 30.169 52.974 34.506 109.218 0 0 3.132 42.27-3.133 41.547 0 0-9.396 5.193-7.709-41.547 1.686-46.741-2.41-106.866 27.707-102.53" style="fill:none;stroke-width:8.486;stroke-linecap:round;stroke-linejoin:round;stroke-miterlimit:4;stroke-dasharray:none;stroke-opacity:1;stroke:currentColor" transform="translate(785.294 157.668)"></path></g></svg>